<?xml version="1.0" encoding="utf-8" standalone="no"?>
<!DOCTYPE svg PUBLIC "-//W3C//DTD SVG 1.1//EN"
  "http://www.w3.org/Graphics/SVG/1.1/DTD/svg11.dtd">
<svg height="627.833625pt" version="1.1" viewBox="0 0 1234.560938 627.833625" width="1234.560938pt" xmlns="http://www.w3.org/2000/svg" xmlns:xlink="http://www.w3.org/1999/xlink">
 <metadata>
  <rdf:RDF xmlns:cc="http://creativecommons.org/ns#" xmlns:dc="http://purl.org/dc/elements/1.1/" xmlns:rdf="http://www.w3.org/1999/02/22-rdf-syntax-ns#">
   <cc:Work>
    <dc:type rdf:resource="http://purl.org/dc/dcmitype/StillImage"/>
    <dc:date>2021-05-06T09:33:34.837890</dc:date>
    <dc:format>image/svg+xml</dc:format>
    <dc:creator>
     <cc:Agent>
      <dc:title>Matplotlib v3.4.1, https://matplotlib.org/</dc:title>
     </cc:Agent>
    </dc:creator>
   </cc:Work>
  </rdf:RDF>
 </metadata>
 <defs>
  <style type="text/css">*{stroke-linecap:butt;stroke-linejoin:round;}</style>
 </defs>
 <g id="figure_1">
  <g id="patch_1">
   <path d="M 0 627.833625 
L 1234.560938 627.833625 
L 1234.560938 0 
L 0 0 
z
" style="fill:#ffffff;"/>
  </g>
  <g id="axes_1">
   <g id="patch_2">
    <path d="M 46.965625 590.277375 
L 1162.965625 590.277375 
L 1162.965625 35.877375 
L 46.965625 35.877375 
z
" style="fill:#ffffff;"/>
   </g>
   <g id="matplotlib.axis_1">
    <g id="xtick_1">
     <g id="line2d_1">
      <path clip-path="url(#p8b7ba5286a)" d="M 97.692898 590.277375 
L 97.692898 35.877375 
" style="fill:none;stroke:#b0b0b0;stroke-linecap:square;stroke-width:0.8;"/>
     </g>
     <g id="line2d_2">
      <defs>
       <path d="M 0 0 
L 0 3.5 
" id="mc29b10f343" style="stroke:#000000;stroke-width:0.8;"/>
      </defs>
      <g>
       <use style="stroke:#000000;stroke-width:0.8;" x="97.692898" xlink:href="#mc29b10f343" y="590.277375"/>
      </g>
     </g>
     <g id="text_1">
      <!-- 0 -->
      <g transform="translate(94.511648 604.875812)scale(0.1 -0.1)">
       <defs>
        <path d="M 2034 4250 
Q 1547 4250 1301 3770 
Q 1056 3291 1056 2328 
Q 1056 1369 1301 889 
Q 1547 409 2034 409 
Q 2525 409 2770 889 
Q 3016 1369 3016 2328 
Q 3016 3291 2770 3770 
Q 2525 4250 2034 4250 
z
M 2034 4750 
Q 2819 4750 3233 4129 
Q 3647 3509 3647 2328 
Q 3647 1150 3233 529 
Q 2819 -91 2034 -91 
Q 1250 -91 836 529 
Q 422 1150 422 2328 
Q 422 3509 836 4129 
Q 1250 4750 2034 4750 
z
" id="DejaVuSans-30" transform="scale(0.015625)"/>
       </defs>
       <use xlink:href="#DejaVuSans-30"/>
      </g>
     </g>
    </g>
    <g id="xtick_2">
     <g id="line2d_3">
      <path clip-path="url(#p8b7ba5286a)" d="M 233.055867 590.277375 
L 233.055867 35.877375 
" style="fill:none;stroke:#b0b0b0;stroke-linecap:square;stroke-width:0.8;"/>
     </g>
     <g id="line2d_4">
      <g>
       <use style="stroke:#000000;stroke-width:0.8;" x="233.055867" xlink:href="#mc29b10f343" y="590.277375"/>
      </g>
     </g>
     <g id="text_2">
      <!-- 200 -->
      <g transform="translate(223.512117 604.875812)scale(0.1 -0.1)">
       <defs>
        <path d="M 1228 531 
L 3431 531 
L 3431 0 
L 469 0 
L 469 531 
Q 828 903 1448 1529 
Q 2069 2156 2228 2338 
Q 2531 2678 2651 2914 
Q 2772 3150 2772 3378 
Q 2772 3750 2511 3984 
Q 2250 4219 1831 4219 
Q 1534 4219 1204 4116 
Q 875 4013 500 3803 
L 500 4441 
Q 881 4594 1212 4672 
Q 1544 4750 1819 4750 
Q 2544 4750 2975 4387 
Q 3406 4025 3406 3419 
Q 3406 3131 3298 2873 
Q 3191 2616 2906 2266 
Q 2828 2175 2409 1742 
Q 1991 1309 1228 531 
z
" id="DejaVuSans-32" transform="scale(0.015625)"/>
       </defs>
       <use xlink:href="#DejaVuSans-32"/>
       <use x="63.623047" xlink:href="#DejaVuSans-30"/>
       <use x="127.246094" xlink:href="#DejaVuSans-30"/>
      </g>
     </g>
    </g>
    <g id="xtick_3">
     <g id="line2d_5">
      <path clip-path="url(#p8b7ba5286a)" d="M 368.418836 590.277375 
L 368.418836 35.877375 
" style="fill:none;stroke:#b0b0b0;stroke-linecap:square;stroke-width:0.8;"/>
     </g>
     <g id="line2d_6">
      <g>
       <use style="stroke:#000000;stroke-width:0.8;" x="368.418836" xlink:href="#mc29b10f343" y="590.277375"/>
      </g>
     </g>
     <g id="text_3">
      <!-- 400 -->
      <g transform="translate(358.875086 604.875812)scale(0.1 -0.1)">
       <defs>
        <path d="M 2419 4116 
L 825 1625 
L 2419 1625 
L 2419 4116 
z
M 2253 4666 
L 3047 4666 
L 3047 1625 
L 3713 1625 
L 3713 1100 
L 3047 1100 
L 3047 0 
L 2419 0 
L 2419 1100 
L 313 1100 
L 313 1709 
L 2253 4666 
z
" id="DejaVuSans-34" transform="scale(0.015625)"/>
       </defs>
       <use xlink:href="#DejaVuSans-34"/>
       <use x="63.623047" xlink:href="#DejaVuSans-30"/>
       <use x="127.246094" xlink:href="#DejaVuSans-30"/>
      </g>
     </g>
    </g>
    <g id="xtick_4">
     <g id="line2d_7">
      <path clip-path="url(#p8b7ba5286a)" d="M 503.781805 590.277375 
L 503.781805 35.877375 
" style="fill:none;stroke:#b0b0b0;stroke-linecap:square;stroke-width:0.8;"/>
     </g>
     <g id="line2d_8">
      <g>
       <use style="stroke:#000000;stroke-width:0.8;" x="503.781805" xlink:href="#mc29b10f343" y="590.277375"/>
      </g>
     </g>
     <g id="text_4">
      <!-- 600 -->
      <g transform="translate(494.238055 604.875812)scale(0.1 -0.1)">
       <defs>
        <path d="M 2113 2584 
Q 1688 2584 1439 2293 
Q 1191 2003 1191 1497 
Q 1191 994 1439 701 
Q 1688 409 2113 409 
Q 2538 409 2786 701 
Q 3034 994 3034 1497 
Q 3034 2003 2786 2293 
Q 2538 2584 2113 2584 
z
M 3366 4563 
L 3366 3988 
Q 3128 4100 2886 4159 
Q 2644 4219 2406 4219 
Q 1781 4219 1451 3797 
Q 1122 3375 1075 2522 
Q 1259 2794 1537 2939 
Q 1816 3084 2150 3084 
Q 2853 3084 3261 2657 
Q 3669 2231 3669 1497 
Q 3669 778 3244 343 
Q 2819 -91 2113 -91 
Q 1303 -91 875 529 
Q 447 1150 447 2328 
Q 447 3434 972 4092 
Q 1497 4750 2381 4750 
Q 2619 4750 2861 4703 
Q 3103 4656 3366 4563 
z
" id="DejaVuSans-36" transform="scale(0.015625)"/>
       </defs>
       <use xlink:href="#DejaVuSans-36"/>
       <use x="63.623047" xlink:href="#DejaVuSans-30"/>
       <use x="127.246094" xlink:href="#DejaVuSans-30"/>
      </g>
     </g>
    </g>
    <g id="xtick_5">
     <g id="line2d_9">
      <path clip-path="url(#p8b7ba5286a)" d="M 639.144775 590.277375 
L 639.144775 35.877375 
" style="fill:none;stroke:#b0b0b0;stroke-linecap:square;stroke-width:0.8;"/>
     </g>
     <g id="line2d_10">
      <g>
       <use style="stroke:#000000;stroke-width:0.8;" x="639.144775" xlink:href="#mc29b10f343" y="590.277375"/>
      </g>
     </g>
     <g id="text_5">
      <!-- 800 -->
      <g transform="translate(629.601025 604.875812)scale(0.1 -0.1)">
       <defs>
        <path d="M 2034 2216 
Q 1584 2216 1326 1975 
Q 1069 1734 1069 1313 
Q 1069 891 1326 650 
Q 1584 409 2034 409 
Q 2484 409 2743 651 
Q 3003 894 3003 1313 
Q 3003 1734 2745 1975 
Q 2488 2216 2034 2216 
z
M 1403 2484 
Q 997 2584 770 2862 
Q 544 3141 544 3541 
Q 544 4100 942 4425 
Q 1341 4750 2034 4750 
Q 2731 4750 3128 4425 
Q 3525 4100 3525 3541 
Q 3525 3141 3298 2862 
Q 3072 2584 2669 2484 
Q 3125 2378 3379 2068 
Q 3634 1759 3634 1313 
Q 3634 634 3220 271 
Q 2806 -91 2034 -91 
Q 1263 -91 848 271 
Q 434 634 434 1313 
Q 434 1759 690 2068 
Q 947 2378 1403 2484 
z
M 1172 3481 
Q 1172 3119 1398 2916 
Q 1625 2713 2034 2713 
Q 2441 2713 2670 2916 
Q 2900 3119 2900 3481 
Q 2900 3844 2670 4047 
Q 2441 4250 2034 4250 
Q 1625 4250 1398 4047 
Q 1172 3844 1172 3481 
z
" id="DejaVuSans-38" transform="scale(0.015625)"/>
       </defs>
       <use xlink:href="#DejaVuSans-38"/>
       <use x="63.623047" xlink:href="#DejaVuSans-30"/>
       <use x="127.246094" xlink:href="#DejaVuSans-30"/>
      </g>
     </g>
    </g>
    <g id="xtick_6">
     <g id="line2d_11">
      <path clip-path="url(#p8b7ba5286a)" d="M 774.507744 590.277375 
L 774.507744 35.877375 
" style="fill:none;stroke:#b0b0b0;stroke-linecap:square;stroke-width:0.8;"/>
     </g>
     <g id="line2d_12">
      <g>
       <use style="stroke:#000000;stroke-width:0.8;" x="774.507744" xlink:href="#mc29b10f343" y="590.277375"/>
      </g>
     </g>
     <g id="text_6">
      <!-- 1000 -->
      <g transform="translate(761.782744 604.875812)scale(0.1 -0.1)">
       <defs>
        <path d="M 794 531 
L 1825 531 
L 1825 4091 
L 703 3866 
L 703 4441 
L 1819 4666 
L 2450 4666 
L 2450 531 
L 3481 531 
L 3481 0 
L 794 0 
L 794 531 
z
" id="DejaVuSans-31" transform="scale(0.015625)"/>
       </defs>
       <use xlink:href="#DejaVuSans-31"/>
       <use x="63.623047" xlink:href="#DejaVuSans-30"/>
       <use x="127.246094" xlink:href="#DejaVuSans-30"/>
       <use x="190.869141" xlink:href="#DejaVuSans-30"/>
      </g>
     </g>
    </g>
    <g id="xtick_7">
     <g id="line2d_13">
      <path clip-path="url(#p8b7ba5286a)" d="M 909.870713 590.277375 
L 909.870713 35.877375 
" style="fill:none;stroke:#b0b0b0;stroke-linecap:square;stroke-width:0.8;"/>
     </g>
     <g id="line2d_14">
      <g>
       <use style="stroke:#000000;stroke-width:0.8;" x="909.870713" xlink:href="#mc29b10f343" y="590.277375"/>
      </g>
     </g>
     <g id="text_7">
      <!-- 1200 -->
      <g transform="translate(897.145713 604.875812)scale(0.1 -0.1)">
       <use xlink:href="#DejaVuSans-31"/>
       <use x="63.623047" xlink:href="#DejaVuSans-32"/>
       <use x="127.246094" xlink:href="#DejaVuSans-30"/>
       <use x="190.869141" xlink:href="#DejaVuSans-30"/>
      </g>
     </g>
    </g>
    <g id="xtick_8">
     <g id="line2d_15">
      <path clip-path="url(#p8b7ba5286a)" d="M 1045.233682 590.277375 
L 1045.233682 35.877375 
" style="fill:none;stroke:#b0b0b0;stroke-linecap:square;stroke-width:0.8;"/>
     </g>
     <g id="line2d_16">
      <g>
       <use style="stroke:#000000;stroke-width:0.8;" x="1045.233682" xlink:href="#mc29b10f343" y="590.277375"/>
      </g>
     </g>
     <g id="text_8">
      <!-- 1400 -->
      <g transform="translate(1032.508682 604.875812)scale(0.1 -0.1)">
       <use xlink:href="#DejaVuSans-31"/>
       <use x="63.623047" xlink:href="#DejaVuSans-34"/>
       <use x="127.246094" xlink:href="#DejaVuSans-30"/>
       <use x="190.869141" xlink:href="#DejaVuSans-30"/>
      </g>
     </g>
    </g>
    <g id="text_9">
     <!-- Number of traces -->
     <g transform="translate(561.371875 618.553937)scale(0.1 -0.1)">
      <defs>
       <path d="M 628 4666 
L 1478 4666 
L 3547 763 
L 3547 4666 
L 4159 4666 
L 4159 0 
L 3309 0 
L 1241 3903 
L 1241 0 
L 628 0 
L 628 4666 
z
" id="DejaVuSans-4e" transform="scale(0.015625)"/>
       <path d="M 544 1381 
L 544 3500 
L 1119 3500 
L 1119 1403 
Q 1119 906 1312 657 
Q 1506 409 1894 409 
Q 2359 409 2629 706 
Q 2900 1003 2900 1516 
L 2900 3500 
L 3475 3500 
L 3475 0 
L 2900 0 
L 2900 538 
Q 2691 219 2414 64 
Q 2138 -91 1772 -91 
Q 1169 -91 856 284 
Q 544 659 544 1381 
z
M 1991 3584 
L 1991 3584 
z
" id="DejaVuSans-75" transform="scale(0.015625)"/>
       <path d="M 3328 2828 
Q 3544 3216 3844 3400 
Q 4144 3584 4550 3584 
Q 5097 3584 5394 3201 
Q 5691 2819 5691 2113 
L 5691 0 
L 5113 0 
L 5113 2094 
Q 5113 2597 4934 2840 
Q 4756 3084 4391 3084 
Q 3944 3084 3684 2787 
Q 3425 2491 3425 1978 
L 3425 0 
L 2847 0 
L 2847 2094 
Q 2847 2600 2669 2842 
Q 2491 3084 2119 3084 
Q 1678 3084 1418 2786 
Q 1159 2488 1159 1978 
L 1159 0 
L 581 0 
L 581 3500 
L 1159 3500 
L 1159 2956 
Q 1356 3278 1631 3431 
Q 1906 3584 2284 3584 
Q 2666 3584 2933 3390 
Q 3200 3197 3328 2828 
z
" id="DejaVuSans-6d" transform="scale(0.015625)"/>
       <path d="M 3116 1747 
Q 3116 2381 2855 2742 
Q 2594 3103 2138 3103 
Q 1681 3103 1420 2742 
Q 1159 2381 1159 1747 
Q 1159 1113 1420 752 
Q 1681 391 2138 391 
Q 2594 391 2855 752 
Q 3116 1113 3116 1747 
z
M 1159 2969 
Q 1341 3281 1617 3432 
Q 1894 3584 2278 3584 
Q 2916 3584 3314 3078 
Q 3713 2572 3713 1747 
Q 3713 922 3314 415 
Q 2916 -91 2278 -91 
Q 1894 -91 1617 61 
Q 1341 213 1159 525 
L 1159 0 
L 581 0 
L 581 4863 
L 1159 4863 
L 1159 2969 
z
" id="DejaVuSans-62" transform="scale(0.015625)"/>
       <path d="M 3597 1894 
L 3597 1613 
L 953 1613 
Q 991 1019 1311 708 
Q 1631 397 2203 397 
Q 2534 397 2845 478 
Q 3156 559 3463 722 
L 3463 178 
Q 3153 47 2828 -22 
Q 2503 -91 2169 -91 
Q 1331 -91 842 396 
Q 353 884 353 1716 
Q 353 2575 817 3079 
Q 1281 3584 2069 3584 
Q 2775 3584 3186 3129 
Q 3597 2675 3597 1894 
z
M 3022 2063 
Q 3016 2534 2758 2815 
Q 2500 3097 2075 3097 
Q 1594 3097 1305 2825 
Q 1016 2553 972 2059 
L 3022 2063 
z
" id="DejaVuSans-65" transform="scale(0.015625)"/>
       <path d="M 2631 2963 
Q 2534 3019 2420 3045 
Q 2306 3072 2169 3072 
Q 1681 3072 1420 2755 
Q 1159 2438 1159 1844 
L 1159 0 
L 581 0 
L 581 3500 
L 1159 3500 
L 1159 2956 
Q 1341 3275 1631 3429 
Q 1922 3584 2338 3584 
Q 2397 3584 2469 3576 
Q 2541 3569 2628 3553 
L 2631 2963 
z
" id="DejaVuSans-72" transform="scale(0.015625)"/>
       <path id="DejaVuSans-20" transform="scale(0.015625)"/>
       <path d="M 1959 3097 
Q 1497 3097 1228 2736 
Q 959 2375 959 1747 
Q 959 1119 1226 758 
Q 1494 397 1959 397 
Q 2419 397 2687 759 
Q 2956 1122 2956 1747 
Q 2956 2369 2687 2733 
Q 2419 3097 1959 3097 
z
M 1959 3584 
Q 2709 3584 3137 3096 
Q 3566 2609 3566 1747 
Q 3566 888 3137 398 
Q 2709 -91 1959 -91 
Q 1206 -91 779 398 
Q 353 888 353 1747 
Q 353 2609 779 3096 
Q 1206 3584 1959 3584 
z
" id="DejaVuSans-6f" transform="scale(0.015625)"/>
       <path d="M 2375 4863 
L 2375 4384 
L 1825 4384 
Q 1516 4384 1395 4259 
Q 1275 4134 1275 3809 
L 1275 3500 
L 2222 3500 
L 2222 3053 
L 1275 3053 
L 1275 0 
L 697 0 
L 697 3053 
L 147 3053 
L 147 3500 
L 697 3500 
L 697 3744 
Q 697 4328 969 4595 
Q 1241 4863 1831 4863 
L 2375 4863 
z
" id="DejaVuSans-66" transform="scale(0.015625)"/>
       <path d="M 1172 4494 
L 1172 3500 
L 2356 3500 
L 2356 3053 
L 1172 3053 
L 1172 1153 
Q 1172 725 1289 603 
Q 1406 481 1766 481 
L 2356 481 
L 2356 0 
L 1766 0 
Q 1100 0 847 248 
Q 594 497 594 1153 
L 594 3053 
L 172 3053 
L 172 3500 
L 594 3500 
L 594 4494 
L 1172 4494 
z
" id="DejaVuSans-74" transform="scale(0.015625)"/>
       <path d="M 2194 1759 
Q 1497 1759 1228 1600 
Q 959 1441 959 1056 
Q 959 750 1161 570 
Q 1363 391 1709 391 
Q 2188 391 2477 730 
Q 2766 1069 2766 1631 
L 2766 1759 
L 2194 1759 
z
M 3341 1997 
L 3341 0 
L 2766 0 
L 2766 531 
Q 2569 213 2275 61 
Q 1981 -91 1556 -91 
Q 1019 -91 701 211 
Q 384 513 384 1019 
Q 384 1609 779 1909 
Q 1175 2209 1959 2209 
L 2766 2209 
L 2766 2266 
Q 2766 2663 2505 2880 
Q 2244 3097 1772 3097 
Q 1472 3097 1187 3025 
Q 903 2953 641 2809 
L 641 3341 
Q 956 3463 1253 3523 
Q 1550 3584 1831 3584 
Q 2591 3584 2966 3190 
Q 3341 2797 3341 1997 
z
" id="DejaVuSans-61" transform="scale(0.015625)"/>
       <path d="M 3122 3366 
L 3122 2828 
Q 2878 2963 2633 3030 
Q 2388 3097 2138 3097 
Q 1578 3097 1268 2742 
Q 959 2388 959 1747 
Q 959 1106 1268 751 
Q 1578 397 2138 397 
Q 2388 397 2633 464 
Q 2878 531 3122 666 
L 3122 134 
Q 2881 22 2623 -34 
Q 2366 -91 2075 -91 
Q 1284 -91 818 406 
Q 353 903 353 1747 
Q 353 2603 823 3093 
Q 1294 3584 2113 3584 
Q 2378 3584 2631 3529 
Q 2884 3475 3122 3366 
z
" id="DejaVuSans-63" transform="scale(0.015625)"/>
       <path d="M 2834 3397 
L 2834 2853 
Q 2591 2978 2328 3040 
Q 2066 3103 1784 3103 
Q 1356 3103 1142 2972 
Q 928 2841 928 2578 
Q 928 2378 1081 2264 
Q 1234 2150 1697 2047 
L 1894 2003 
Q 2506 1872 2764 1633 
Q 3022 1394 3022 966 
Q 3022 478 2636 193 
Q 2250 -91 1575 -91 
Q 1294 -91 989 -36 
Q 684 19 347 128 
L 347 722 
Q 666 556 975 473 
Q 1284 391 1588 391 
Q 1994 391 2212 530 
Q 2431 669 2431 922 
Q 2431 1156 2273 1281 
Q 2116 1406 1581 1522 
L 1381 1569 
Q 847 1681 609 1914 
Q 372 2147 372 2553 
Q 372 3047 722 3315 
Q 1072 3584 1716 3584 
Q 2034 3584 2315 3537 
Q 2597 3491 2834 3397 
z
" id="DejaVuSans-73" transform="scale(0.015625)"/>
      </defs>
      <use xlink:href="#DejaVuSans-4e"/>
      <use x="74.804688" xlink:href="#DejaVuSans-75"/>
      <use x="138.183594" xlink:href="#DejaVuSans-6d"/>
      <use x="235.595703" xlink:href="#DejaVuSans-62"/>
      <use x="299.072266" xlink:href="#DejaVuSans-65"/>
      <use x="360.595703" xlink:href="#DejaVuSans-72"/>
      <use x="401.708984" xlink:href="#DejaVuSans-20"/>
      <use x="433.496094" xlink:href="#DejaVuSans-6f"/>
      <use x="494.677734" xlink:href="#DejaVuSans-66"/>
      <use x="529.882812" xlink:href="#DejaVuSans-20"/>
      <use x="561.669922" xlink:href="#DejaVuSans-74"/>
      <use x="600.878906" xlink:href="#DejaVuSans-72"/>
      <use x="641.992188" xlink:href="#DejaVuSans-61"/>
      <use x="703.271484" xlink:href="#DejaVuSans-63"/>
      <use x="758.251953" xlink:href="#DejaVuSans-65"/>
      <use x="819.775391" xlink:href="#DejaVuSans-73"/>
     </g>
    </g>
   </g>
   <g id="matplotlib.axis_2">
    <g id="ytick_1">
     <g id="line2d_17">
      <path clip-path="url(#p8b7ba5286a)" d="M 46.965625 576.755424 
L 1162.965625 576.755424 
" style="fill:none;stroke:#b0b0b0;stroke-linecap:square;stroke-width:0.8;"/>
     </g>
     <g id="line2d_18">
      <defs>
       <path d="M 0 0 
L -3.5 0 
" id="mf721ab9c1b" style="stroke:#000000;stroke-width:0.8;"/>
      </defs>
      <g>
       <use style="stroke:#000000;stroke-width:0.8;" x="46.965625" xlink:href="#mf721ab9c1b" y="576.755424"/>
      </g>
     </g>
     <g id="text_10">
      <!-- 0 -->
      <g transform="translate(33.603125 580.554643)scale(0.1 -0.1)">
       <use xlink:href="#DejaVuSans-30"/>
      </g>
     </g>
    </g>
    <g id="ytick_2">
     <g id="line2d_19">
      <path clip-path="url(#p8b7ba5286a)" d="M 46.965625 509.145668 
L 1162.965625 509.145668 
" style="fill:none;stroke:#b0b0b0;stroke-linecap:square;stroke-width:0.8;"/>
     </g>
     <g id="line2d_20">
      <g>
       <use style="stroke:#000000;stroke-width:0.8;" x="46.965625" xlink:href="#mf721ab9c1b" y="509.145668"/>
      </g>
     </g>
     <g id="text_11">
      <!-- 25 -->
      <g transform="translate(27.240625 512.944886)scale(0.1 -0.1)">
       <defs>
        <path d="M 691 4666 
L 3169 4666 
L 3169 4134 
L 1269 4134 
L 1269 2991 
Q 1406 3038 1543 3061 
Q 1681 3084 1819 3084 
Q 2600 3084 3056 2656 
Q 3513 2228 3513 1497 
Q 3513 744 3044 326 
Q 2575 -91 1722 -91 
Q 1428 -91 1123 -41 
Q 819 9 494 109 
L 494 744 
Q 775 591 1075 516 
Q 1375 441 1709 441 
Q 2250 441 2565 725 
Q 2881 1009 2881 1497 
Q 2881 1984 2565 2268 
Q 2250 2553 1709 2553 
Q 1456 2553 1204 2497 
Q 953 2441 691 2322 
L 691 4666 
z
" id="DejaVuSans-35" transform="scale(0.015625)"/>
       </defs>
       <use xlink:href="#DejaVuSans-32"/>
       <use x="63.623047" xlink:href="#DejaVuSans-35"/>
      </g>
     </g>
    </g>
    <g id="ytick_3">
     <g id="line2d_21">
      <path clip-path="url(#p8b7ba5286a)" d="M 46.965625 441.535912 
L 1162.965625 441.535912 
" style="fill:none;stroke:#b0b0b0;stroke-linecap:square;stroke-width:0.8;"/>
     </g>
     <g id="line2d_22">
      <g>
       <use style="stroke:#000000;stroke-width:0.8;" x="46.965625" xlink:href="#mf721ab9c1b" y="441.535912"/>
      </g>
     </g>
     <g id="text_12">
      <!-- 50 -->
      <g transform="translate(27.240625 445.33513)scale(0.1 -0.1)">
       <use xlink:href="#DejaVuSans-35"/>
       <use x="63.623047" xlink:href="#DejaVuSans-30"/>
      </g>
     </g>
    </g>
    <g id="ytick_4">
     <g id="line2d_23">
      <path clip-path="url(#p8b7ba5286a)" d="M 46.965625 373.926155 
L 1162.965625 373.926155 
" style="fill:none;stroke:#b0b0b0;stroke-linecap:square;stroke-width:0.8;"/>
     </g>
     <g id="line2d_24">
      <g>
       <use style="stroke:#000000;stroke-width:0.8;" x="46.965625" xlink:href="#mf721ab9c1b" y="373.926155"/>
      </g>
     </g>
     <g id="text_13">
      <!-- 75 -->
      <g transform="translate(27.240625 377.725374)scale(0.1 -0.1)">
       <defs>
        <path d="M 525 4666 
L 3525 4666 
L 3525 4397 
L 1831 0 
L 1172 0 
L 2766 4134 
L 525 4134 
L 525 4666 
z
" id="DejaVuSans-37" transform="scale(0.015625)"/>
       </defs>
       <use xlink:href="#DejaVuSans-37"/>
       <use x="63.623047" xlink:href="#DejaVuSans-35"/>
      </g>
     </g>
    </g>
    <g id="ytick_5">
     <g id="line2d_25">
      <path clip-path="url(#p8b7ba5286a)" d="M 46.965625 306.316399 
L 1162.965625 306.316399 
" style="fill:none;stroke:#b0b0b0;stroke-linecap:square;stroke-width:0.8;"/>
     </g>
     <g id="line2d_26">
      <g>
       <use style="stroke:#000000;stroke-width:0.8;" x="46.965625" xlink:href="#mf721ab9c1b" y="306.316399"/>
      </g>
     </g>
     <g id="text_14">
      <!-- 100 -->
      <g transform="translate(20.878125 310.115618)scale(0.1 -0.1)">
       <use xlink:href="#DejaVuSans-31"/>
       <use x="63.623047" xlink:href="#DejaVuSans-30"/>
       <use x="127.246094" xlink:href="#DejaVuSans-30"/>
      </g>
     </g>
    </g>
    <g id="ytick_6">
     <g id="line2d_27">
      <path clip-path="url(#p8b7ba5286a)" d="M 46.965625 238.706643 
L 1162.965625 238.706643 
" style="fill:none;stroke:#b0b0b0;stroke-linecap:square;stroke-width:0.8;"/>
     </g>
     <g id="line2d_28">
      <g>
       <use style="stroke:#000000;stroke-width:0.8;" x="46.965625" xlink:href="#mf721ab9c1b" y="238.706643"/>
      </g>
     </g>
     <g id="text_15">
      <!-- 125 -->
      <g transform="translate(20.878125 242.505862)scale(0.1 -0.1)">
       <use xlink:href="#DejaVuSans-31"/>
       <use x="63.623047" xlink:href="#DejaVuSans-32"/>
       <use x="127.246094" xlink:href="#DejaVuSans-35"/>
      </g>
     </g>
    </g>
    <g id="ytick_7">
     <g id="line2d_29">
      <path clip-path="url(#p8b7ba5286a)" d="M 46.965625 171.096887 
L 1162.965625 171.096887 
" style="fill:none;stroke:#b0b0b0;stroke-linecap:square;stroke-width:0.8;"/>
     </g>
     <g id="line2d_30">
      <g>
       <use style="stroke:#000000;stroke-width:0.8;" x="46.965625" xlink:href="#mf721ab9c1b" y="171.096887"/>
      </g>
     </g>
     <g id="text_16">
      <!-- 150 -->
      <g transform="translate(20.878125 174.896106)scale(0.1 -0.1)">
       <use xlink:href="#DejaVuSans-31"/>
       <use x="63.623047" xlink:href="#DejaVuSans-35"/>
       <use x="127.246094" xlink:href="#DejaVuSans-30"/>
      </g>
     </g>
    </g>
    <g id="ytick_8">
     <g id="line2d_31">
      <path clip-path="url(#p8b7ba5286a)" d="M 46.965625 103.487131 
L 1162.965625 103.487131 
" style="fill:none;stroke:#b0b0b0;stroke-linecap:square;stroke-width:0.8;"/>
     </g>
     <g id="line2d_32">
      <g>
       <use style="stroke:#000000;stroke-width:0.8;" x="46.965625" xlink:href="#mf721ab9c1b" y="103.487131"/>
      </g>
     </g>
     <g id="text_17">
      <!-- 175 -->
      <g transform="translate(20.878125 107.28635)scale(0.1 -0.1)">
       <use xlink:href="#DejaVuSans-31"/>
       <use x="63.623047" xlink:href="#DejaVuSans-37"/>
       <use x="127.246094" xlink:href="#DejaVuSans-35"/>
      </g>
     </g>
    </g>
    <g id="ytick_9">
     <g id="line2d_33">
      <path clip-path="url(#p8b7ba5286a)" d="M 46.965625 35.877375 
L 1162.965625 35.877375 
" style="fill:none;stroke:#b0b0b0;stroke-linecap:square;stroke-width:0.8;"/>
     </g>
     <g id="line2d_34">
      <g>
       <use style="stroke:#000000;stroke-width:0.8;" x="46.965625" xlink:href="#mf721ab9c1b" y="35.877375"/>
      </g>
     </g>
     <g id="text_18">
      <!-- 200 -->
      <g transform="translate(20.878125 39.676594)scale(0.1 -0.1)">
       <use xlink:href="#DejaVuSans-32"/>
       <use x="63.623047" xlink:href="#DejaVuSans-30"/>
       <use x="127.246094" xlink:href="#DejaVuSans-30"/>
      </g>
     </g>
    </g>
    <g id="text_19">
     <!-- Rank -->
     <g transform="translate(14.798438 325.567219)rotate(-90)scale(0.1 -0.1)">
      <defs>
       <path d="M 2841 2188 
Q 3044 2119 3236 1894 
Q 3428 1669 3622 1275 
L 4263 0 
L 3584 0 
L 2988 1197 
Q 2756 1666 2539 1819 
Q 2322 1972 1947 1972 
L 1259 1972 
L 1259 0 
L 628 0 
L 628 4666 
L 2053 4666 
Q 2853 4666 3247 4331 
Q 3641 3997 3641 3322 
Q 3641 2881 3436 2590 
Q 3231 2300 2841 2188 
z
M 1259 4147 
L 1259 2491 
L 2053 2491 
Q 2509 2491 2742 2702 
Q 2975 2913 2975 3322 
Q 2975 3731 2742 3939 
Q 2509 4147 2053 4147 
L 1259 4147 
z
" id="DejaVuSans-52" transform="scale(0.015625)"/>
       <path d="M 3513 2113 
L 3513 0 
L 2938 0 
L 2938 2094 
Q 2938 2591 2744 2837 
Q 2550 3084 2163 3084 
Q 1697 3084 1428 2787 
Q 1159 2491 1159 1978 
L 1159 0 
L 581 0 
L 581 3500 
L 1159 3500 
L 1159 2956 
Q 1366 3272 1645 3428 
Q 1925 3584 2291 3584 
Q 2894 3584 3203 3211 
Q 3513 2838 3513 2113 
z
" id="DejaVuSans-6e" transform="scale(0.015625)"/>
       <path d="M 581 4863 
L 1159 4863 
L 1159 1991 
L 2875 3500 
L 3609 3500 
L 1753 1863 
L 3688 0 
L 2938 0 
L 1159 1709 
L 1159 0 
L 581 0 
L 581 4863 
z
" id="DejaVuSans-6b" transform="scale(0.015625)"/>
      </defs>
      <use xlink:href="#DejaVuSans-52"/>
      <use x="67.232422" xlink:href="#DejaVuSans-61"/>
      <use x="128.511719" xlink:href="#DejaVuSans-6e"/>
      <use x="191.890625" xlink:href="#DejaVuSans-6b"/>
     </g>
    </g>
   </g>
   <g id="line2d_35">
    <path clip-path="url(#p8b7ba5286a)" d="M 97.692898 283.464302 
L 98.369713 300.204477 
L 99.723342 325.490526 
L 100.400157 328.627619 
L 101.076972 345.719365 
L 101.753787 356.996673 
L 102.430602 363.622429 
L 103.107416 361.891619 
L 103.784231 369.085297 
L 104.461046 368.652595 
L 105.137861 373.574585 
L 105.814676 374.818604 
L 106.491491 376.982116 
L 107.168306 376.143755 
L 107.84512 382.444985 
L 108.521935 384.202838 
L 109.19875 387.258799 
L 109.875565 381.687755 
L 110.55238 383.824224 
L 111.229195 381.877063 
L 111.906009 389.395268 
L 112.582824 392.66758 
L 113.259639 393.478897 
L 113.936454 395.642409 
L 114.613269 402.15999 
L 115.290084 398.83359 
L 115.966899 400.402136 
L 116.643713 396.183287 
L 117.320528 395.480146 
L 117.997343 390.558155 
L 118.674158 394.668829 
L 119.350973 396.534858 
L 120.027788 397.562526 
L 120.704603 399.780126 
L 121.381417 398.238624 
L 122.735047 405.756829 
L 123.411862 407.974429 
L 124.088677 411.300829 
L 124.765492 412.923463 
L 126.119121 418.764946 
L 126.795936 417.980673 
L 127.472751 423.362409 
L 128.149566 424.714604 
L 128.826381 427.04038 
L 129.503196 427.689434 
L 130.18001 430.961746 
L 130.856825 430.529043 
L 131.53364 433.017082 
L 132.210455 436.100087 
L 132.88727 439.778058 
L 133.564085 438.317687 
L 134.240899 435.261726 
L 135.594529 437.181843 
L 136.271344 436.018955 
L 136.948159 438.696302 
L 137.624974 443.726468 
L 138.301789 442.861063 
L 138.978603 445.40319 
L 139.655418 445.971112 
L 140.332233 450.271092 
L 141.009048 453.02957 
L 141.685863 451.947814 
L 142.362678 454.841512 
L 143.039492 456.545277 
L 143.716307 461.142741 
L 144.393122 459.871677 
L 145.069937 459.68237 
L 145.746752 463.062858 
L 146.423567 463.387385 
L 147.100382 465.037063 
L 147.777196 468.444595 
L 148.454011 467.281707 
L 149.130826 470.824458 
L 149.807641 473.366585 
L 150.484456 474.448341 
L 151.161271 473.069102 
L 151.838085 472.636399 
L 152.5149 473.582936 
L 153.191715 470.094273 
L 153.86853 468.228243 
L 154.545345 468.850253 
L 155.22216 472.068477 
L 155.898975 473.718155 
L 156.575789 473.312497 
L 157.252604 475.070351 
L 159.283049 475.611229 
L 159.959864 475.530097 
L 160.636678 475.232614 
L 161.313493 475.611229 
L 161.990308 476.341414 
L 162.667123 479.045804 
L 163.343938 479.126936 
L 164.020753 482.074721 
L 164.697568 481.912458 
L 165.374382 479.830077 
L 166.728012 480.830702 
L 167.404827 479.370331 
L 168.081642 475.557141 
L 168.758457 476.395502 
L 169.435271 478.396751 
L 170.112086 479.505551 
L 170.788901 479.77599 
L 172.142531 483.994838 
L 172.819346 483.129434 
L 173.496161 484.535716 
L 174.172975 482.48038 
L 174.84979 485.996087 
L 175.526605 486.834448 
L 176.20342 487.943248 
L 177.55705 486.023131 
L 178.233864 486.645141 
L 178.910679 485.779736 
L 179.587494 485.536341 
L 180.264309 484.887287 
L 180.941124 486.42879 
L 181.617939 486.996712 
L 182.294754 486.239482 
L 182.971568 485.725648 
L 183.648383 484.589804 
L 185.002013 486.42879 
L 185.678828 485.130682 
L 186.355643 486.29357 
L 187.032457 486.807404 
L 187.709272 486.212438 
L 188.386087 486.131307 
L 189.062902 487.699853 
L 189.739717 489.701102 
L 190.416532 488.159599 
L 191.093347 487.53759 
L 191.770161 488.727521 
L 193.800606 494.109258 
L 194.477421 494.54196 
L 195.154236 495.136926 
L 195.83105 496.840692 
L 196.507865 495.623716 
L 197.18468 495.758936 
L 197.861495 496.462077 
L 198.53831 497.787229 
L 199.215125 497.138175 
L 199.89194 498.246975 
L 200.568754 498.571502 
L 201.245569 500.626838 
L 201.922384 501.546331 
L 202.599199 501.95199 
L 203.276014 503.736887 
L 203.952829 504.548204 
L 204.629643 503.54758 
L 205.306458 504.385941 
L 205.983273 504.52116 
L 206.660088 506.062663 
L 207.336903 506.522409 
L 208.013718 507.49599 
L 208.690533 507.333726 
L 209.367347 507.306682 
L 211.397792 509.280887 
L 212.074607 507.441902 
L 212.751422 507.306682 
L 213.428236 506.684673 
L 214.105051 507.063287 
L 214.781866 507.306682 
L 215.458681 508.523658 
L 216.135496 508.307307 
L 216.812311 509.416107 
L 217.489126 509.767677 
L 218.16594 510.68717 
L 218.842755 511.363268 
L 219.51957 511.768926 
L 220.196385 511.904146 
L 220.8732 511.146916 
L 221.550015 509.632458 
L 222.226829 510.416731 
L 222.903644 512.147541 
L 223.580459 512.309804 
L 224.257274 511.30918 
L 224.934089 513.52678 
L 225.610904 512.499112 
L 226.287719 510.957609 
L 226.964533 511.579619 
L 227.641348 511.146916 
L 228.318163 512.039365 
L 228.994978 512.688419 
L 229.671793 514.067658 
L 230.348608 513.770175 
L 231.025422 513.878351 
L 231.702237 514.175834 
L 232.379052 515.230546 
L 233.055867 515.528029 
L 233.732682 517.123619 
L 235.086312 518.556946 
L 235.763126 518.800341 
L 236.439941 518.529902 
L 237.116756 519.719834 
L 237.793571 518.016068 
L 238.470386 519.963229 
L 239.147201 519.909141 
L 239.824015 519.422351 
L 240.50083 521.585863 
L 241.177645 520.855677 
L 241.85446 521.450643 
L 242.531275 521.126116 
L 243.884905 523.046234 
L 244.561719 523.50598 
L 245.238534 524.587736 
L 245.915349 523.668243 
L 246.592164 524.344341 
L 247.268979 524.722955 
L 248.622608 527.400302 
L 249.976238 527.129863 
L 250.653053 527.373258 
L 251.329868 526.69716 
L 252.006683 527.80596 
L 252.683498 527.210995 
L 253.360312 528.022312 
L 254.037127 527.589609 
L 254.713942 528.455014 
L 255.390757 528.752497 
L 256.067572 529.185199 
L 256.744387 527.94118 
L 257.421201 528.887716 
L 258.098016 527.914136 
L 258.774831 527.535521 
L 259.451646 527.670741 
L 260.128461 527.373258 
L 260.805276 527.238038 
L 261.482091 526.805336 
L 262.83572 527.914136 
L 263.512535 528.049355 
L 264.18935 527.968224 
L 264.866165 527.724829 
L 265.54298 527.968224 
L 266.219794 528.590234 
L 266.896609 528.103443 
L 267.573424 529.509726 
L 268.250239 529.293375 
L 268.927054 529.888341 
L 269.603869 531.13236 
L 270.280684 531.024185 
L 270.957498 530.483307 
L 271.634313 529.212243 
L 272.311128 529.53677 
L 272.987943 529.726077 
L 273.664758 529.104068 
L 274.341573 528.833629 
L 275.018387 529.644946 
L 275.695202 530.050604 
L 276.372017 529.158155 
L 277.048832 528.455014 
L 277.725647 528.644321 
L 278.402462 530.78079 
L 279.079277 531.186448 
L 279.756091 531.294624 
L 280.432906 532.051853 
L 281.109721 533.34996 
L 282.463351 534.161277 
L 283.140166 534.080146 
L 283.81698 533.863795 
L 284.493795 534.377629 
L 285.17061 534.485804 
L 285.847425 535.540516 
L 286.52424 535.08077 
L 287.87787 534.512848 
L 288.554684 535.70278 
L 289.231499 536.595229 
L 289.908314 536.595229 
L 291.261944 539.056224 
L 292.615573 539.137355 
L 293.292388 538.758741 
L 293.969203 539.110312 
L 295.322833 537.622897 
L 295.999648 537.947424 
L 296.676463 539.678234 
L 297.353277 540.273199 
L 298.706907 539.137355 
L 299.383722 539.137355 
L 300.060537 538.866916 
L 300.737352 539.948673 
L 301.414166 539.948673 
L 302.090981 540.165024 
L 302.767796 539.867541 
L 303.444611 538.89396 
L 304.121426 539.002136 
L 304.798241 539.326663 
L 305.475056 538.975092 
L 306.15187 539.948673 
L 306.828685 539.380751 
L 307.5055 539.51597 
L 308.182315 538.89396 
L 308.85913 539.245531 
L 309.535945 539.191443 
L 310.212759 538.785785 
L 310.889574 538.758741 
L 311.566389 539.245531 
L 312.920019 539.083268 
L 313.596834 539.921629 
L 314.273649 540.381375 
L 314.950463 540.354331 
L 315.627278 540.705902 
L 316.304093 541.652438 
L 316.980908 541.327912 
L 317.657723 541.571307 
L 318.334538 542.247404 
L 319.011352 543.166897 
L 319.688167 543.545512 
L 320.364982 543.734819 
L 321.041797 544.57318 
L 321.718612 544.816575 
L 322.395427 544.519092 
L 323.072242 545.573804 
L 323.749056 544.924751 
L 324.425871 545.654936 
L 325.102686 546.141726 
L 325.779501 546.222858 
L 326.456316 546.65556 
L 327.809945 548.602721 
L 328.48676 548.197063 
L 329.163575 549.251775 
L 329.84039 548.954292 
L 330.517205 550.171268 
L 331.19402 550.495795 
L 331.870835 551.361199 
L 332.547649 550.712146 
L 333.224464 551.388243 
L 333.901279 551.631638 
L 334.578094 552.037297 
L 335.931724 551.84799 
L 338.638983 553.389492 
L 339.992613 553.551755 
L 340.669428 553.30836 
L 341.346242 554.173765 
L 342.023057 554.55238 
L 343.376687 553.768107 
L 344.053502 554.119677 
L 345.407131 553.768107 
L 346.083946 553.957414 
L 346.760761 554.930995 
L 348.114391 554.525336 
L 348.791206 554.958038 
L 349.468021 556.066838 
L 350.82165 556.229102 
L 351.498465 556.364321 
L 352.17528 557.419034 
L 352.852095 557.581297 
L 353.52891 558.176263 
L 354.882539 557.824692 
L 356.236169 557.986955 
L 356.912984 557.689473 
L 358.943428 558.663053 
L 359.620243 558.608965 
L 360.297058 558.36557 
L 360.973873 558.85236 
L 361.650688 558.392614 
L 363.004317 558.744185 
L 363.681132 559.230975 
L 364.357947 559.47437 
L 365.034762 558.771229 
L 366.388392 558.960536 
L 367.065207 559.60959 
L 367.742021 559.420282 
L 369.095651 559.690721 
L 369.772466 559.393238 
L 370.449281 559.47437 
L 371.126096 559.176887 
L 371.80291 559.366195 
L 372.479725 559.312107 
L 373.15654 559.717765 
L 376.540614 559.907073 
L 377.217429 559.663677 
L 377.894244 559.582546 
L 378.571059 559.744809 
L 379.247874 560.150468 
L 379.924689 559.825941 
L 380.601503 559.690721 
L 381.278318 560.474995 
L 381.955133 560.907697 
L 382.631948 560.799521 
L 383.308763 560.880653 
L 383.985578 560.366819 
L 384.662393 560.826565 
L 385.339207 561.042916 
L 386.016022 561.556751 
L 386.692837 561.908321 
L 387.369652 561.881277 
L 388.046467 562.016497 
L 388.723282 561.962409 
L 392.107356 562.963034 
L 393.460986 563.314604 
L 394.1378 563.044165 
L 394.814615 563.801395 
L 395.49143 563.530955 
L 396.168245 563.42278 
L 396.84506 563.612087 
L 397.521875 563.530955 
L 398.198689 564.39636 
L 398.875504 564.747931 
L 399.552319 564.937238 
L 400.229134 564.829063 
L 400.905949 565.126546 
L 402.259579 564.856107 
L 403.613208 564.829063 
L 404.290023 565.234721 
L 404.966838 565.451073 
L 406.320468 565.342897 
L 406.997282 565.261765 
L 407.674097 565.369941 
L 408.350912 565.613336 
L 409.027727 565.424029 
L 409.704542 565.559248 
L 411.734986 565.261765 
L 412.411801 565.532204 
L 413.088616 565.613336 
L 413.765431 565.829687 
L 415.119061 565.694468 
L 415.795875 565.532204 
L 416.47269 564.856107 
L 417.149505 565.072458 
L 417.82632 564.504536 
L 418.503135 564.802019 
L 419.17995 564.964282 
L 419.856765 564.991326 
L 420.533579 565.369941 
L 421.210394 565.288809 
L 421.887209 566.208302 
L 422.564024 566.181258 
L 423.240839 566.397609 
L 423.917654 565.991951 
L 425.948098 566.208302 
L 426.624913 566.776224 
L 427.301728 566.641004 
L 427.978543 566.316477 
L 430.008987 566.61396 
L 430.685802 566.316477 
L 431.362617 566.532829 
L 432.039432 566.586916 
L 433.393061 566.992575 
L 434.069876 566.478741 
L 435.423506 566.911443 
L 437.453951 567.425277 
L 438.130765 567.668673 
L 438.80758 567.425277 
L 439.484395 567.506409 
L 441.51484 567.100751 
L 442.191654 567.641629 
L 442.868469 567.587541 
L 443.545284 567.885024 
L 444.222099 567.885024 
L 444.898914 567.641629 
L 446.929358 567.912068 
L 447.606173 567.912068 
L 448.959803 568.507034 
L 449.636618 568.398858 
L 450.313433 568.642253 
L 451.667062 568.669297 
L 452.343877 568.507034 
L 455.051137 569.345395 
L 455.727951 569.291307 
L 456.404766 569.832185 
L 457.081581 569.724009 
L 457.758396 570.318975 
L 458.435211 570.508282 
L 459.112026 570.454195 
L 459.78884 570.237843 
L 461.14247 570.805765 
L 461.819285 570.886897 
L 463.172915 570.508282 
L 463.84973 570.724634 
L 465.203359 570.346019 
L 465.880174 570.291931 
L 466.556989 570.427151 
L 467.233804 570.346019 
L 469.941063 570.56237 
L 471.294693 570.454195 
L 474.001952 571.319599 
L 474.678767 571.373687 
L 475.355582 571.860477 
L 477.386026 572.239092 
L 478.062841 572.15796 
L 478.739656 572.374312 
L 479.416471 572.29318 
L 480.093286 572.509531 
L 480.770101 572.29318 
L 482.12373 572.347268 
L 482.800545 572.509531 
L 483.47736 572.509531 
L 484.154175 572.807014 
L 486.184619 572.401355 
L 487.538249 572.834058 
L 488.891879 572.77997 
L 489.568694 572.401355 
L 494.983212 573.185629 
L 495.660027 573.077453 
L 499.720916 573.347892 
L 501.074546 573.645375 
L 503.104991 573.645375 
L 503.781805 573.861726 
L 504.45862 573.807638 
L 506.489065 574.105121 
L 507.842695 573.996946 
L 508.519509 573.780595 
L 512.580398 573.996946 
L 513.257213 574.132165 
L 513.934028 574.402604 
L 514.610843 574.321473 
L 515.287658 574.429648 
L 515.964473 574.294429 
L 516.641288 574.483736 
L 518.671732 574.483736 
L 520.702177 574.51078 
L 522.055806 574.348516 
L 523.409436 574.294429 
L 524.086251 574.456692 
L 526.116695 574.348516 
L 528.823955 574.348516 
L 529.50077 574.105121 
L 530.177584 574.240341 
L 533.561659 573.942858 
L 534.915288 574.159209 
L 536.945733 574.105121 
L 538.299363 574.402604 
L 540.329807 574.348516 
L 541.006622 574.132165 
L 541.683437 574.402604 
L 543.713881 574.348516 
L 544.390696 574.51078 
L 545.744326 574.483736 
L 546.421141 574.456692 
L 547.097956 574.618955 
L 547.77477 574.51078 
L 548.451585 574.700087 
L 549.1284 574.700087 
L 549.805215 574.51078 
L 550.48203 574.618955 
L 551.158845 574.483736 
L 560.634253 574.754175 
L 561.311067 574.564868 
L 562.664697 574.673043 
L 568.079216 575.024614 
L 570.786475 575.105746 
L 571.46329 575.213921 
L 572.81692 575.105746 
L 573.493735 575.213921 
L 576.877809 575.186877 
L 578.231439 575.213921 
L 580.261883 575.024614 
L 580.938698 575.213921 
L 582.292328 575.159834 
L 584.322772 575.240965 
L 585.676402 575.186877 
L 587.030032 575.322097 
L 588.383661 575.268009 
L 591.090921 575.457316 
L 591.767735 575.349141 
L 592.44455 575.538448 
L 594.474995 575.430273 
L 596.505439 575.727755 
L 597.182254 575.646624 
L 598.535884 575.646624 
L 599.212699 575.565492 
L 599.889514 575.673668 
L 601.919958 575.538448 
L 605.304032 575.700712 
L 607.334477 575.646624 
L 609.364922 575.727755 
L 612.072181 575.727755 
L 615.456255 575.917063 
L 619.517144 575.835931 
L 620.870774 575.808887 
L 624.931663 575.727755 
L 626.285293 575.862975 
L 626.962108 575.971151 
L 628.315737 575.835931 
L 630.346182 575.781843 
L 635.760701 575.890019 
L 650.650627 575.835931 
L 651.327442 575.754799 
L 653.357887 575.808887 
L 654.034701 575.700712 
L 658.772405 575.781843 
L 660.126035 575.808887 
L 662.15648 575.971151 
L 663.510109 576.079326 
L 665.540554 576.10637 
L 667.570998 576.24159 
L 670.955073 576.268634 
L 693.289962 576.214546 
L 694.643592 576.133414 
L 698.027666 576.160458 
L 701.411741 576.10637 
L 703.442185 576.079326 
L 709.533519 575.944107 
L 712.240778 575.998195 
L 712.917593 575.917063 
L 716.301667 576.079326 
L 719.685741 575.998195 
L 721.716186 576.052282 
L 725.10026 575.971151 
L 726.45389 576.133414 
L 735.252483 576.214546 
L 736.606113 576.268634 
L 737.959742 576.214546 
L 742.020631 576.268634 
L 754.203299 576.295677 
L 754.880113 576.403853 
L 757.587373 576.268634 
L 759.617817 576.322721 
L 763.678706 576.376809 
L 767.739596 576.322721 
L 781.275892 576.403853 
L 782.629522 576.403853 
L 791.428115 576.457941 
L 792.10493 576.539073 
L 793.45856 576.539073 
L 796.842634 576.484985 
L 800.903523 576.539073 
L 826.622487 576.647248 
L 828.652932 576.647248 
L 830.683376 576.59316 
L 1060.800424 576.701336 
L 1064.184498 576.72838 
L 1112.238352 576.72838 
L 1112.238352 576.72838 
" style="fill:none;stroke:#1f77b4;stroke-linecap:square;stroke-width:1.5;"/>
   </g>
   <g id="patch_3">
    <path d="M 46.965625 590.277375 
L 46.965625 35.877375 
" style="fill:none;stroke:#000000;stroke-linecap:square;stroke-linejoin:miter;stroke-width:0.8;"/>
   </g>
   <g id="patch_4">
    <path d="M 1162.965625 590.277375 
L 1162.965625 35.877375 
" style="fill:none;stroke:#000000;stroke-linecap:square;stroke-linejoin:miter;stroke-width:0.8;"/>
   </g>
   <g id="patch_5">
    <path d="M 46.965625 590.277375 
L 1162.965625 590.277375 
" style="fill:none;stroke:#000000;stroke-linecap:square;stroke-linejoin:miter;stroke-width:0.8;"/>
   </g>
   <g id="patch_6">
    <path d="M 46.965625 35.877375 
L 1162.965625 35.877375 
" style="fill:none;stroke:#000000;stroke-linecap:square;stroke-linejoin:miter;stroke-width:0.8;"/>
   </g>
   <g id="text_20">
    <!-- AES_HD -->
    <g transform="translate(581.12875 16.10625)scale(0.12 -0.12)">
     <defs>
      <path d="M 2188 4044 
L 1331 1722 
L 3047 1722 
L 2188 4044 
z
M 1831 4666 
L 2547 4666 
L 4325 0 
L 3669 0 
L 3244 1197 
L 1141 1197 
L 716 0 
L 50 0 
L 1831 4666 
z
" id="DejaVuSans-41" transform="scale(0.015625)"/>
      <path d="M 628 4666 
L 3578 4666 
L 3578 4134 
L 1259 4134 
L 1259 2753 
L 3481 2753 
L 3481 2222 
L 1259 2222 
L 1259 531 
L 3634 531 
L 3634 0 
L 628 0 
L 628 4666 
z
" id="DejaVuSans-45" transform="scale(0.015625)"/>
      <path d="M 3425 4513 
L 3425 3897 
Q 3066 4069 2747 4153 
Q 2428 4238 2131 4238 
Q 1616 4238 1336 4038 
Q 1056 3838 1056 3469 
Q 1056 3159 1242 3001 
Q 1428 2844 1947 2747 
L 2328 2669 
Q 3034 2534 3370 2195 
Q 3706 1856 3706 1288 
Q 3706 609 3251 259 
Q 2797 -91 1919 -91 
Q 1588 -91 1214 -16 
Q 841 59 441 206 
L 441 856 
Q 825 641 1194 531 
Q 1563 422 1919 422 
Q 2459 422 2753 634 
Q 3047 847 3047 1241 
Q 3047 1584 2836 1778 
Q 2625 1972 2144 2069 
L 1759 2144 
Q 1053 2284 737 2584 
Q 422 2884 422 3419 
Q 422 4038 858 4394 
Q 1294 4750 2059 4750 
Q 2388 4750 2728 4690 
Q 3069 4631 3425 4513 
z
" id="DejaVuSans-53" transform="scale(0.015625)"/>
      <path d="M 3263 -1063 
L 3263 -1509 
L -63 -1509 
L -63 -1063 
L 3263 -1063 
z
" id="DejaVuSans-5f" transform="scale(0.015625)"/>
      <path d="M 628 4666 
L 1259 4666 
L 1259 2753 
L 3553 2753 
L 3553 4666 
L 4184 4666 
L 4184 0 
L 3553 0 
L 3553 2222 
L 1259 2222 
L 1259 0 
L 628 0 
L 628 4666 
z
" id="DejaVuSans-48" transform="scale(0.015625)"/>
      <path d="M 1259 4147 
L 1259 519 
L 2022 519 
Q 2988 519 3436 956 
Q 3884 1394 3884 2338 
Q 3884 3275 3436 3711 
Q 2988 4147 2022 4147 
L 1259 4147 
z
M 628 4666 
L 1925 4666 
Q 3281 4666 3915 4102 
Q 4550 3538 4550 2338 
Q 4550 1131 3912 565 
Q 3275 0 1925 0 
L 628 0 
L 628 4666 
z
" id="DejaVuSans-44" transform="scale(0.015625)"/>
     </defs>
     <use xlink:href="#DejaVuSans-41"/>
     <use x="68.408203" xlink:href="#DejaVuSans-45"/>
     <use x="131.591797" xlink:href="#DejaVuSans-53"/>
     <use x="195.068359" xlink:href="#DejaVuSans-5f"/>
     <use x="245.068359" xlink:href="#DejaVuSans-48"/>
     <use x="320.263672" xlink:href="#DejaVuSans-44"/>
    </g>
    <!-- _1500trs_100att -->
    <g transform="translate(555.9175 29.877375)scale(0.12 -0.12)">
     <use xlink:href="#DejaVuSans-5f"/>
     <use x="50" xlink:href="#DejaVuSans-31"/>
     <use x="113.623047" xlink:href="#DejaVuSans-35"/>
     <use x="177.246094" xlink:href="#DejaVuSans-30"/>
     <use x="240.869141" xlink:href="#DejaVuSans-30"/>
     <use x="304.492188" xlink:href="#DejaVuSans-74"/>
     <use x="343.701172" xlink:href="#DejaVuSans-72"/>
     <use x="384.814453" xlink:href="#DejaVuSans-73"/>
     <use x="436.914062" xlink:href="#DejaVuSans-5f"/>
     <use x="486.914062" xlink:href="#DejaVuSans-31"/>
     <use x="550.537109" xlink:href="#DejaVuSans-30"/>
     <use x="614.160156" xlink:href="#DejaVuSans-30"/>
     <use x="677.783203" xlink:href="#DejaVuSans-61"/>
     <use x="739.0625" xlink:href="#DejaVuSans-74"/>
     <use x="778.271484" xlink:href="#DejaVuSans-74"/>
    </g>
   </g>
   <g id="legend_1">
    <g id="patch_7">
     <path d="M 1174.965625 63.5555 
L 1225.360938 63.5555 
Q 1227.360938 63.5555 1227.360938 61.5555 
L 1227.360938 47.877375 
Q 1227.360938 45.877375 1225.360938 45.877375 
L 1174.965625 45.877375 
Q 1172.965625 45.877375 1172.965625 47.877375 
L 1172.965625 61.5555 
Q 1172.965625 63.5555 1174.965625 63.5555 
z
" style="fill:#ffffff;opacity:0.8;stroke:#cccccc;stroke-linejoin:miter;"/>
    </g>
    <g id="line2d_36">
     <path d="M 1176.965625 53.975812 
L 1196.965625 53.975812 
" style="fill:none;stroke:#1f77b4;stroke-linecap:square;stroke-width:1.5;"/>
    </g>
    <g id="line2d_37"/>
    <g id="text_21">
     <!-- avg -->
     <g transform="translate(1204.965625 57.475812)scale(0.1 -0.1)">
      <defs>
       <path d="M 191 3500 
L 800 3500 
L 1894 563 
L 2988 3500 
L 3597 3500 
L 2284 0 
L 1503 0 
L 191 3500 
z
" id="DejaVuSans-76" transform="scale(0.015625)"/>
       <path d="M 2906 1791 
Q 2906 2416 2648 2759 
Q 2391 3103 1925 3103 
Q 1463 3103 1205 2759 
Q 947 2416 947 1791 
Q 947 1169 1205 825 
Q 1463 481 1925 481 
Q 2391 481 2648 825 
Q 2906 1169 2906 1791 
z
M 3481 434 
Q 3481 -459 3084 -895 
Q 2688 -1331 1869 -1331 
Q 1566 -1331 1297 -1286 
Q 1028 -1241 775 -1147 
L 775 -588 
Q 1028 -725 1275 -790 
Q 1522 -856 1778 -856 
Q 2344 -856 2625 -561 
Q 2906 -266 2906 331 
L 2906 616 
Q 2728 306 2450 153 
Q 2172 0 1784 0 
Q 1141 0 747 490 
Q 353 981 353 1791 
Q 353 2603 747 3093 
Q 1141 3584 1784 3584 
Q 2172 3584 2450 3431 
Q 2728 3278 2906 2969 
L 2906 3500 
L 3481 3500 
L 3481 434 
z
" id="DejaVuSans-67" transform="scale(0.015625)"/>
      </defs>
      <use xlink:href="#DejaVuSans-61"/>
      <use x="61.279297" xlink:href="#DejaVuSans-76"/>
      <use x="120.458984" xlink:href="#DejaVuSans-67"/>
     </g>
    </g>
   </g>
  </g>
 </g>
 <defs>
  <clipPath id="p8b7ba5286a">
   <rect height="554.4" width="1116" x="46.965625" y="35.877375"/>
  </clipPath>
 </defs>
</svg>
