<?xml version="1.0" encoding="utf-8" standalone="no"?>
<!DOCTYPE svg PUBLIC "-//W3C//DTD SVG 1.1//EN"
  "http://www.w3.org/Graphics/SVG/1.1/DTD/svg11.dtd">
<svg height="614.274375pt" version="1.1" viewBox="0 0 853.520312 614.274375" width="853.520312pt" xmlns="http://www.w3.org/2000/svg" xmlns:xlink="http://www.w3.org/1999/xlink">
 <metadata>
  <rdf:RDF xmlns:cc="http://creativecommons.org/ns#" xmlns:dc="http://purl.org/dc/elements/1.1/" xmlns:rdf="http://www.w3.org/1999/02/22-rdf-syntax-ns#">
   <cc:Work>
    <dc:type rdf:resource="http://purl.org/dc/dcmitype/StillImage"/>
    <dc:date>2021-05-18T07:44:35.428759</dc:date>
    <dc:format>image/svg+xml</dc:format>
    <dc:creator>
     <cc:Agent>
      <dc:title>Matplotlib v3.4.1, https://matplotlib.org/</dc:title>
     </cc:Agent>
    </dc:creator>
   </cc:Work>
  </rdf:RDF>
 </metadata>
 <defs>
  <style type="text/css">*{stroke-linecap:butt;stroke-linejoin:round;}</style>
 </defs>
 <g id="figure_1">
  <g id="patch_1">
   <path d="M 0 614.274375 
L 853.520312 614.274375 
L 853.520312 0 
L 0 0 
z
" style="fill:#ffffff;"/>
  </g>
  <g id="axes_1">
   <g id="patch_2">
    <path d="M 46.965625 576.718125 
L 716.565625 576.718125 
L 716.565625 22.318125 
L 46.965625 22.318125 
z
" style="fill:#ffffff;"/>
   </g>
   <g id="matplotlib.axis_1">
    <g id="xtick_1">
     <g id="line2d_1">
      <path clip-path="url(#pdc22461bcd)" d="M 77.401989 576.718125 
L 77.401989 22.318125 
" style="fill:none;stroke:#b0b0b0;stroke-linecap:square;stroke-width:0.8;"/>
     </g>
     <g id="line2d_2">
      <defs>
       <path d="M 0 0 
L 0 3.5 
" id="me81a7fd14e" style="stroke:#000000;stroke-width:0.8;"/>
      </defs>
      <g>
       <use style="stroke:#000000;stroke-width:0.8;" x="77.401989" xlink:href="#me81a7fd14e" y="576.718125"/>
      </g>
     </g>
     <g id="text_1">
      <!-- 0 -->
      <g transform="translate(74.220739 591.316563)scale(0.1 -0.1)">
       <defs>
        <path d="M 2034 4250 
Q 1547 4250 1301 3770 
Q 1056 3291 1056 2328 
Q 1056 1369 1301 889 
Q 1547 409 2034 409 
Q 2525 409 2770 889 
Q 3016 1369 3016 2328 
Q 3016 3291 2770 3770 
Q 2525 4250 2034 4250 
z
M 2034 4750 
Q 2819 4750 3233 4129 
Q 3647 3509 3647 2328 
Q 3647 1150 3233 529 
Q 2819 -91 2034 -91 
Q 1250 -91 836 529 
Q 422 1150 422 2328 
Q 422 3509 836 4129 
Q 1250 4750 2034 4750 
z
" id="DejaVuSans-30" transform="scale(0.015625)"/>
       </defs>
       <use xlink:href="#DejaVuSans-30"/>
      </g>
     </g>
    </g>
    <g id="xtick_2">
     <g id="line2d_3">
      <path clip-path="url(#pdc22461bcd)" d="M 182.354967 576.718125 
L 182.354967 22.318125 
" style="fill:none;stroke:#b0b0b0;stroke-linecap:square;stroke-width:0.8;"/>
     </g>
     <g id="line2d_4">
      <g>
       <use style="stroke:#000000;stroke-width:0.8;" x="182.354967" xlink:href="#me81a7fd14e" y="576.718125"/>
      </g>
     </g>
     <g id="text_2">
      <!-- 5 -->
      <g transform="translate(179.173717 591.316563)scale(0.1 -0.1)">
       <defs>
        <path d="M 691 4666 
L 3169 4666 
L 3169 4134 
L 1269 4134 
L 1269 2991 
Q 1406 3038 1543 3061 
Q 1681 3084 1819 3084 
Q 2600 3084 3056 2656 
Q 3513 2228 3513 1497 
Q 3513 744 3044 326 
Q 2575 -91 1722 -91 
Q 1428 -91 1123 -41 
Q 819 9 494 109 
L 494 744 
Q 775 591 1075 516 
Q 1375 441 1709 441 
Q 2250 441 2565 725 
Q 2881 1009 2881 1497 
Q 2881 1984 2565 2268 
Q 2250 2553 1709 2553 
Q 1456 2553 1204 2497 
Q 953 2441 691 2322 
L 691 4666 
z
" id="DejaVuSans-35" transform="scale(0.015625)"/>
       </defs>
       <use xlink:href="#DejaVuSans-35"/>
      </g>
     </g>
    </g>
    <g id="xtick_3">
     <g id="line2d_5">
      <path clip-path="url(#pdc22461bcd)" d="M 287.307945 576.718125 
L 287.307945 22.318125 
" style="fill:none;stroke:#b0b0b0;stroke-linecap:square;stroke-width:0.8;"/>
     </g>
     <g id="line2d_6">
      <g>
       <use style="stroke:#000000;stroke-width:0.8;" x="287.307945" xlink:href="#me81a7fd14e" y="576.718125"/>
      </g>
     </g>
     <g id="text_3">
      <!-- 10 -->
      <g transform="translate(280.945445 591.316563)scale(0.1 -0.1)">
       <defs>
        <path d="M 794 531 
L 1825 531 
L 1825 4091 
L 703 3866 
L 703 4441 
L 1819 4666 
L 2450 4666 
L 2450 531 
L 3481 531 
L 3481 0 
L 794 0 
L 794 531 
z
" id="DejaVuSans-31" transform="scale(0.015625)"/>
       </defs>
       <use xlink:href="#DejaVuSans-31"/>
       <use x="63.623047" xlink:href="#DejaVuSans-30"/>
      </g>
     </g>
    </g>
    <g id="xtick_4">
     <g id="line2d_7">
      <path clip-path="url(#pdc22461bcd)" d="M 392.260923 576.718125 
L 392.260923 22.318125 
" style="fill:none;stroke:#b0b0b0;stroke-linecap:square;stroke-width:0.8;"/>
     </g>
     <g id="line2d_8">
      <g>
       <use style="stroke:#000000;stroke-width:0.8;" x="392.260923" xlink:href="#me81a7fd14e" y="576.718125"/>
      </g>
     </g>
     <g id="text_4">
      <!-- 15 -->
      <g transform="translate(385.898423 591.316563)scale(0.1 -0.1)">
       <use xlink:href="#DejaVuSans-31"/>
       <use x="63.623047" xlink:href="#DejaVuSans-35"/>
      </g>
     </g>
    </g>
    <g id="xtick_5">
     <g id="line2d_9">
      <path clip-path="url(#pdc22461bcd)" d="M 497.213901 576.718125 
L 497.213901 22.318125 
" style="fill:none;stroke:#b0b0b0;stroke-linecap:square;stroke-width:0.8;"/>
     </g>
     <g id="line2d_10">
      <g>
       <use style="stroke:#000000;stroke-width:0.8;" x="497.213901" xlink:href="#me81a7fd14e" y="576.718125"/>
      </g>
     </g>
     <g id="text_5">
      <!-- 20 -->
      <g transform="translate(490.851401 591.316563)scale(0.1 -0.1)">
       <defs>
        <path d="M 1228 531 
L 3431 531 
L 3431 0 
L 469 0 
L 469 531 
Q 828 903 1448 1529 
Q 2069 2156 2228 2338 
Q 2531 2678 2651 2914 
Q 2772 3150 2772 3378 
Q 2772 3750 2511 3984 
Q 2250 4219 1831 4219 
Q 1534 4219 1204 4116 
Q 875 4013 500 3803 
L 500 4441 
Q 881 4594 1212 4672 
Q 1544 4750 1819 4750 
Q 2544 4750 2975 4387 
Q 3406 4025 3406 3419 
Q 3406 3131 3298 2873 
Q 3191 2616 2906 2266 
Q 2828 2175 2409 1742 
Q 1991 1309 1228 531 
z
" id="DejaVuSans-32" transform="scale(0.015625)"/>
       </defs>
       <use xlink:href="#DejaVuSans-32"/>
       <use x="63.623047" xlink:href="#DejaVuSans-30"/>
      </g>
     </g>
    </g>
    <g id="xtick_6">
     <g id="line2d_11">
      <path clip-path="url(#pdc22461bcd)" d="M 602.166879 576.718125 
L 602.166879 22.318125 
" style="fill:none;stroke:#b0b0b0;stroke-linecap:square;stroke-width:0.8;"/>
     </g>
     <g id="line2d_12">
      <g>
       <use style="stroke:#000000;stroke-width:0.8;" x="602.166879" xlink:href="#me81a7fd14e" y="576.718125"/>
      </g>
     </g>
     <g id="text_6">
      <!-- 25 -->
      <g transform="translate(595.804379 591.316563)scale(0.1 -0.1)">
       <use xlink:href="#DejaVuSans-32"/>
       <use x="63.623047" xlink:href="#DejaVuSans-35"/>
      </g>
     </g>
    </g>
    <g id="xtick_7">
     <g id="line2d_13">
      <path clip-path="url(#pdc22461bcd)" d="M 707.119857 576.718125 
L 707.119857 22.318125 
" style="fill:none;stroke:#b0b0b0;stroke-linecap:square;stroke-width:0.8;"/>
     </g>
     <g id="line2d_14">
      <g>
       <use style="stroke:#000000;stroke-width:0.8;" x="707.119857" xlink:href="#me81a7fd14e" y="576.718125"/>
      </g>
     </g>
     <g id="text_7">
      <!-- 30 -->
      <g transform="translate(700.757357 591.316563)scale(0.1 -0.1)">
       <defs>
        <path d="M 2597 2516 
Q 3050 2419 3304 2112 
Q 3559 1806 3559 1356 
Q 3559 666 3084 287 
Q 2609 -91 1734 -91 
Q 1441 -91 1130 -33 
Q 819 25 488 141 
L 488 750 
Q 750 597 1062 519 
Q 1375 441 1716 441 
Q 2309 441 2620 675 
Q 2931 909 2931 1356 
Q 2931 1769 2642 2001 
Q 2353 2234 1838 2234 
L 1294 2234 
L 1294 2753 
L 1863 2753 
Q 2328 2753 2575 2939 
Q 2822 3125 2822 3475 
Q 2822 3834 2567 4026 
Q 2313 4219 1838 4219 
Q 1578 4219 1281 4162 
Q 984 4106 628 3988 
L 628 4550 
Q 988 4650 1302 4700 
Q 1616 4750 1894 4750 
Q 2613 4750 3031 4423 
Q 3450 4097 3450 3541 
Q 3450 3153 3228 2886 
Q 3006 2619 2597 2516 
z
" id="DejaVuSans-33" transform="scale(0.015625)"/>
       </defs>
       <use xlink:href="#DejaVuSans-33"/>
       <use x="63.623047" xlink:href="#DejaVuSans-30"/>
      </g>
     </g>
    </g>
    <g id="text_8">
     <!-- Number of traces -->
     <g transform="translate(338.171875 604.994688)scale(0.1 -0.1)">
      <defs>
       <path d="M 628 4666 
L 1478 4666 
L 3547 763 
L 3547 4666 
L 4159 4666 
L 4159 0 
L 3309 0 
L 1241 3903 
L 1241 0 
L 628 0 
L 628 4666 
z
" id="DejaVuSans-4e" transform="scale(0.015625)"/>
       <path d="M 544 1381 
L 544 3500 
L 1119 3500 
L 1119 1403 
Q 1119 906 1312 657 
Q 1506 409 1894 409 
Q 2359 409 2629 706 
Q 2900 1003 2900 1516 
L 2900 3500 
L 3475 3500 
L 3475 0 
L 2900 0 
L 2900 538 
Q 2691 219 2414 64 
Q 2138 -91 1772 -91 
Q 1169 -91 856 284 
Q 544 659 544 1381 
z
M 1991 3584 
L 1991 3584 
z
" id="DejaVuSans-75" transform="scale(0.015625)"/>
       <path d="M 3328 2828 
Q 3544 3216 3844 3400 
Q 4144 3584 4550 3584 
Q 5097 3584 5394 3201 
Q 5691 2819 5691 2113 
L 5691 0 
L 5113 0 
L 5113 2094 
Q 5113 2597 4934 2840 
Q 4756 3084 4391 3084 
Q 3944 3084 3684 2787 
Q 3425 2491 3425 1978 
L 3425 0 
L 2847 0 
L 2847 2094 
Q 2847 2600 2669 2842 
Q 2491 3084 2119 3084 
Q 1678 3084 1418 2786 
Q 1159 2488 1159 1978 
L 1159 0 
L 581 0 
L 581 3500 
L 1159 3500 
L 1159 2956 
Q 1356 3278 1631 3431 
Q 1906 3584 2284 3584 
Q 2666 3584 2933 3390 
Q 3200 3197 3328 2828 
z
" id="DejaVuSans-6d" transform="scale(0.015625)"/>
       <path d="M 3116 1747 
Q 3116 2381 2855 2742 
Q 2594 3103 2138 3103 
Q 1681 3103 1420 2742 
Q 1159 2381 1159 1747 
Q 1159 1113 1420 752 
Q 1681 391 2138 391 
Q 2594 391 2855 752 
Q 3116 1113 3116 1747 
z
M 1159 2969 
Q 1341 3281 1617 3432 
Q 1894 3584 2278 3584 
Q 2916 3584 3314 3078 
Q 3713 2572 3713 1747 
Q 3713 922 3314 415 
Q 2916 -91 2278 -91 
Q 1894 -91 1617 61 
Q 1341 213 1159 525 
L 1159 0 
L 581 0 
L 581 4863 
L 1159 4863 
L 1159 2969 
z
" id="DejaVuSans-62" transform="scale(0.015625)"/>
       <path d="M 3597 1894 
L 3597 1613 
L 953 1613 
Q 991 1019 1311 708 
Q 1631 397 2203 397 
Q 2534 397 2845 478 
Q 3156 559 3463 722 
L 3463 178 
Q 3153 47 2828 -22 
Q 2503 -91 2169 -91 
Q 1331 -91 842 396 
Q 353 884 353 1716 
Q 353 2575 817 3079 
Q 1281 3584 2069 3584 
Q 2775 3584 3186 3129 
Q 3597 2675 3597 1894 
z
M 3022 2063 
Q 3016 2534 2758 2815 
Q 2500 3097 2075 3097 
Q 1594 3097 1305 2825 
Q 1016 2553 972 2059 
L 3022 2063 
z
" id="DejaVuSans-65" transform="scale(0.015625)"/>
       <path d="M 2631 2963 
Q 2534 3019 2420 3045 
Q 2306 3072 2169 3072 
Q 1681 3072 1420 2755 
Q 1159 2438 1159 1844 
L 1159 0 
L 581 0 
L 581 3500 
L 1159 3500 
L 1159 2956 
Q 1341 3275 1631 3429 
Q 1922 3584 2338 3584 
Q 2397 3584 2469 3576 
Q 2541 3569 2628 3553 
L 2631 2963 
z
" id="DejaVuSans-72" transform="scale(0.015625)"/>
       <path id="DejaVuSans-20" transform="scale(0.015625)"/>
       <path d="M 1959 3097 
Q 1497 3097 1228 2736 
Q 959 2375 959 1747 
Q 959 1119 1226 758 
Q 1494 397 1959 397 
Q 2419 397 2687 759 
Q 2956 1122 2956 1747 
Q 2956 2369 2687 2733 
Q 2419 3097 1959 3097 
z
M 1959 3584 
Q 2709 3584 3137 3096 
Q 3566 2609 3566 1747 
Q 3566 888 3137 398 
Q 2709 -91 1959 -91 
Q 1206 -91 779 398 
Q 353 888 353 1747 
Q 353 2609 779 3096 
Q 1206 3584 1959 3584 
z
" id="DejaVuSans-6f" transform="scale(0.015625)"/>
       <path d="M 2375 4863 
L 2375 4384 
L 1825 4384 
Q 1516 4384 1395 4259 
Q 1275 4134 1275 3809 
L 1275 3500 
L 2222 3500 
L 2222 3053 
L 1275 3053 
L 1275 0 
L 697 0 
L 697 3053 
L 147 3053 
L 147 3500 
L 697 3500 
L 697 3744 
Q 697 4328 969 4595 
Q 1241 4863 1831 4863 
L 2375 4863 
z
" id="DejaVuSans-66" transform="scale(0.015625)"/>
       <path d="M 1172 4494 
L 1172 3500 
L 2356 3500 
L 2356 3053 
L 1172 3053 
L 1172 1153 
Q 1172 725 1289 603 
Q 1406 481 1766 481 
L 2356 481 
L 2356 0 
L 1766 0 
Q 1100 0 847 248 
Q 594 497 594 1153 
L 594 3053 
L 172 3053 
L 172 3500 
L 594 3500 
L 594 4494 
L 1172 4494 
z
" id="DejaVuSans-74" transform="scale(0.015625)"/>
       <path d="M 2194 1759 
Q 1497 1759 1228 1600 
Q 959 1441 959 1056 
Q 959 750 1161 570 
Q 1363 391 1709 391 
Q 2188 391 2477 730 
Q 2766 1069 2766 1631 
L 2766 1759 
L 2194 1759 
z
M 3341 1997 
L 3341 0 
L 2766 0 
L 2766 531 
Q 2569 213 2275 61 
Q 1981 -91 1556 -91 
Q 1019 -91 701 211 
Q 384 513 384 1019 
Q 384 1609 779 1909 
Q 1175 2209 1959 2209 
L 2766 2209 
L 2766 2266 
Q 2766 2663 2505 2880 
Q 2244 3097 1772 3097 
Q 1472 3097 1187 3025 
Q 903 2953 641 2809 
L 641 3341 
Q 956 3463 1253 3523 
Q 1550 3584 1831 3584 
Q 2591 3584 2966 3190 
Q 3341 2797 3341 1997 
z
" id="DejaVuSans-61" transform="scale(0.015625)"/>
       <path d="M 3122 3366 
L 3122 2828 
Q 2878 2963 2633 3030 
Q 2388 3097 2138 3097 
Q 1578 3097 1268 2742 
Q 959 2388 959 1747 
Q 959 1106 1268 751 
Q 1578 397 2138 397 
Q 2388 397 2633 464 
Q 2878 531 3122 666 
L 3122 134 
Q 2881 22 2623 -34 
Q 2366 -91 2075 -91 
Q 1284 -91 818 406 
Q 353 903 353 1747 
Q 353 2603 823 3093 
Q 1294 3584 2113 3584 
Q 2378 3584 2631 3529 
Q 2884 3475 3122 3366 
z
" id="DejaVuSans-63" transform="scale(0.015625)"/>
       <path d="M 2834 3397 
L 2834 2853 
Q 2591 2978 2328 3040 
Q 2066 3103 1784 3103 
Q 1356 3103 1142 2972 
Q 928 2841 928 2578 
Q 928 2378 1081 2264 
Q 1234 2150 1697 2047 
L 1894 2003 
Q 2506 1872 2764 1633 
Q 3022 1394 3022 966 
Q 3022 478 2636 193 
Q 2250 -91 1575 -91 
Q 1294 -91 989 -36 
Q 684 19 347 128 
L 347 722 
Q 666 556 975 473 
Q 1284 391 1588 391 
Q 1994 391 2212 530 
Q 2431 669 2431 922 
Q 2431 1156 2273 1281 
Q 2116 1406 1581 1522 
L 1381 1569 
Q 847 1681 609 1914 
Q 372 2147 372 2553 
Q 372 3047 722 3315 
Q 1072 3584 1716 3584 
Q 2034 3584 2315 3537 
Q 2597 3491 2834 3397 
z
" id="DejaVuSans-73" transform="scale(0.015625)"/>
      </defs>
      <use xlink:href="#DejaVuSans-4e"/>
      <use x="74.804688" xlink:href="#DejaVuSans-75"/>
      <use x="138.183594" xlink:href="#DejaVuSans-6d"/>
      <use x="235.595703" xlink:href="#DejaVuSans-62"/>
      <use x="299.072266" xlink:href="#DejaVuSans-65"/>
      <use x="360.595703" xlink:href="#DejaVuSans-72"/>
      <use x="401.708984" xlink:href="#DejaVuSans-20"/>
      <use x="433.496094" xlink:href="#DejaVuSans-6f"/>
      <use x="494.677734" xlink:href="#DejaVuSans-66"/>
      <use x="529.882812" xlink:href="#DejaVuSans-20"/>
      <use x="561.669922" xlink:href="#DejaVuSans-74"/>
      <use x="600.878906" xlink:href="#DejaVuSans-72"/>
      <use x="641.992188" xlink:href="#DejaVuSans-61"/>
      <use x="703.271484" xlink:href="#DejaVuSans-63"/>
      <use x="758.251953" xlink:href="#DejaVuSans-65"/>
      <use x="819.775391" xlink:href="#DejaVuSans-73"/>
     </g>
    </g>
   </g>
   <g id="matplotlib.axis_2">
    <g id="ytick_1">
     <g id="line2d_15">
      <path clip-path="url(#pdc22461bcd)" d="M 46.965625 555.395048 
L 716.565625 555.395048 
" style="fill:none;stroke:#b0b0b0;stroke-linecap:square;stroke-width:0.8;"/>
     </g>
     <g id="line2d_16">
      <defs>
       <path d="M 0 0 
L -3.5 0 
" id="me2ed527936" style="stroke:#000000;stroke-width:0.8;"/>
      </defs>
      <g>
       <use style="stroke:#000000;stroke-width:0.8;" x="46.965625" xlink:href="#me2ed527936" y="555.395048"/>
      </g>
     </g>
     <g id="text_9">
      <!-- 0 -->
      <g transform="translate(33.603125 559.194267)scale(0.1 -0.1)">
       <use xlink:href="#DejaVuSans-30"/>
      </g>
     </g>
    </g>
    <g id="ytick_2">
     <g id="line2d_17">
      <path clip-path="url(#pdc22461bcd)" d="M 46.965625 470.10274 
L 716.565625 470.10274 
" style="fill:none;stroke:#b0b0b0;stroke-linecap:square;stroke-width:0.8;"/>
     </g>
     <g id="line2d_18">
      <g>
       <use style="stroke:#000000;stroke-width:0.8;" x="46.965625" xlink:href="#me2ed527936" y="470.10274"/>
      </g>
     </g>
     <g id="text_10">
      <!-- 20 -->
      <g transform="translate(27.240625 473.901959)scale(0.1 -0.1)">
       <use xlink:href="#DejaVuSans-32"/>
       <use x="63.623047" xlink:href="#DejaVuSans-30"/>
      </g>
     </g>
    </g>
    <g id="ytick_3">
     <g id="line2d_19">
      <path clip-path="url(#pdc22461bcd)" d="M 46.965625 384.810433 
L 716.565625 384.810433 
" style="fill:none;stroke:#b0b0b0;stroke-linecap:square;stroke-width:0.8;"/>
     </g>
     <g id="line2d_20">
      <g>
       <use style="stroke:#000000;stroke-width:0.8;" x="46.965625" xlink:href="#me2ed527936" y="384.810433"/>
      </g>
     </g>
     <g id="text_11">
      <!-- 40 -->
      <g transform="translate(27.240625 388.609651)scale(0.1 -0.1)">
       <defs>
        <path d="M 2419 4116 
L 825 1625 
L 2419 1625 
L 2419 4116 
z
M 2253 4666 
L 3047 4666 
L 3047 1625 
L 3713 1625 
L 3713 1100 
L 3047 1100 
L 3047 0 
L 2419 0 
L 2419 1100 
L 313 1100 
L 313 1709 
L 2253 4666 
z
" id="DejaVuSans-34" transform="scale(0.015625)"/>
       </defs>
       <use xlink:href="#DejaVuSans-34"/>
       <use x="63.623047" xlink:href="#DejaVuSans-30"/>
      </g>
     </g>
    </g>
    <g id="ytick_4">
     <g id="line2d_21">
      <path clip-path="url(#pdc22461bcd)" d="M 46.965625 299.518125 
L 716.565625 299.518125 
" style="fill:none;stroke:#b0b0b0;stroke-linecap:square;stroke-width:0.8;"/>
     </g>
     <g id="line2d_22">
      <g>
       <use style="stroke:#000000;stroke-width:0.8;" x="46.965625" xlink:href="#me2ed527936" y="299.518125"/>
      </g>
     </g>
     <g id="text_12">
      <!-- 60 -->
      <g transform="translate(27.240625 303.317344)scale(0.1 -0.1)">
       <defs>
        <path d="M 2113 2584 
Q 1688 2584 1439 2293 
Q 1191 2003 1191 1497 
Q 1191 994 1439 701 
Q 1688 409 2113 409 
Q 2538 409 2786 701 
Q 3034 994 3034 1497 
Q 3034 2003 2786 2293 
Q 2538 2584 2113 2584 
z
M 3366 4563 
L 3366 3988 
Q 3128 4100 2886 4159 
Q 2644 4219 2406 4219 
Q 1781 4219 1451 3797 
Q 1122 3375 1075 2522 
Q 1259 2794 1537 2939 
Q 1816 3084 2150 3084 
Q 2853 3084 3261 2657 
Q 3669 2231 3669 1497 
Q 3669 778 3244 343 
Q 2819 -91 2113 -91 
Q 1303 -91 875 529 
Q 447 1150 447 2328 
Q 447 3434 972 4092 
Q 1497 4750 2381 4750 
Q 2619 4750 2861 4703 
Q 3103 4656 3366 4563 
z
" id="DejaVuSans-36" transform="scale(0.015625)"/>
       </defs>
       <use xlink:href="#DejaVuSans-36"/>
       <use x="63.623047" xlink:href="#DejaVuSans-30"/>
      </g>
     </g>
    </g>
    <g id="ytick_5">
     <g id="line2d_23">
      <path clip-path="url(#pdc22461bcd)" d="M 46.965625 214.225817 
L 716.565625 214.225817 
" style="fill:none;stroke:#b0b0b0;stroke-linecap:square;stroke-width:0.8;"/>
     </g>
     <g id="line2d_24">
      <g>
       <use style="stroke:#000000;stroke-width:0.8;" x="46.965625" xlink:href="#me2ed527936" y="214.225817"/>
      </g>
     </g>
     <g id="text_13">
      <!-- 80 -->
      <g transform="translate(27.240625 218.025036)scale(0.1 -0.1)">
       <defs>
        <path d="M 2034 2216 
Q 1584 2216 1326 1975 
Q 1069 1734 1069 1313 
Q 1069 891 1326 650 
Q 1584 409 2034 409 
Q 2484 409 2743 651 
Q 3003 894 3003 1313 
Q 3003 1734 2745 1975 
Q 2488 2216 2034 2216 
z
M 1403 2484 
Q 997 2584 770 2862 
Q 544 3141 544 3541 
Q 544 4100 942 4425 
Q 1341 4750 2034 4750 
Q 2731 4750 3128 4425 
Q 3525 4100 3525 3541 
Q 3525 3141 3298 2862 
Q 3072 2584 2669 2484 
Q 3125 2378 3379 2068 
Q 3634 1759 3634 1313 
Q 3634 634 3220 271 
Q 2806 -91 2034 -91 
Q 1263 -91 848 271 
Q 434 634 434 1313 
Q 434 1759 690 2068 
Q 947 2378 1403 2484 
z
M 1172 3481 
Q 1172 3119 1398 2916 
Q 1625 2713 2034 2713 
Q 2441 2713 2670 2916 
Q 2900 3119 2900 3481 
Q 2900 3844 2670 4047 
Q 2441 4250 2034 4250 
Q 1625 4250 1398 4047 
Q 1172 3844 1172 3481 
z
" id="DejaVuSans-38" transform="scale(0.015625)"/>
       </defs>
       <use xlink:href="#DejaVuSans-38"/>
       <use x="63.623047" xlink:href="#DejaVuSans-30"/>
      </g>
     </g>
    </g>
    <g id="ytick_6">
     <g id="line2d_25">
      <path clip-path="url(#pdc22461bcd)" d="M 46.965625 128.93351 
L 716.565625 128.93351 
" style="fill:none;stroke:#b0b0b0;stroke-linecap:square;stroke-width:0.8;"/>
     </g>
     <g id="line2d_26">
      <g>
       <use style="stroke:#000000;stroke-width:0.8;" x="46.965625" xlink:href="#me2ed527936" y="128.93351"/>
      </g>
     </g>
     <g id="text_14">
      <!-- 100 -->
      <g transform="translate(20.878125 132.732728)scale(0.1 -0.1)">
       <use xlink:href="#DejaVuSans-31"/>
       <use x="63.623047" xlink:href="#DejaVuSans-30"/>
       <use x="127.246094" xlink:href="#DejaVuSans-30"/>
      </g>
     </g>
    </g>
    <g id="ytick_7">
     <g id="line2d_27">
      <path clip-path="url(#pdc22461bcd)" d="M 46.965625 43.641202 
L 716.565625 43.641202 
" style="fill:none;stroke:#b0b0b0;stroke-linecap:square;stroke-width:0.8;"/>
     </g>
     <g id="line2d_28">
      <g>
       <use style="stroke:#000000;stroke-width:0.8;" x="46.965625" xlink:href="#me2ed527936" y="43.641202"/>
      </g>
     </g>
     <g id="text_15">
      <!-- 120 -->
      <g transform="translate(20.878125 47.440421)scale(0.1 -0.1)">
       <use xlink:href="#DejaVuSans-31"/>
       <use x="63.623047" xlink:href="#DejaVuSans-32"/>
       <use x="127.246094" xlink:href="#DejaVuSans-30"/>
      </g>
     </g>
    </g>
    <g id="text_16">
     <!-- Rank -->
     <g transform="translate(14.798438 312.007969)rotate(-90)scale(0.1 -0.1)">
      <defs>
       <path d="M 2841 2188 
Q 3044 2119 3236 1894 
Q 3428 1669 3622 1275 
L 4263 0 
L 3584 0 
L 2988 1197 
Q 2756 1666 2539 1819 
Q 2322 1972 1947 1972 
L 1259 1972 
L 1259 0 
L 628 0 
L 628 4666 
L 2053 4666 
Q 2853 4666 3247 4331 
Q 3641 3997 3641 3322 
Q 3641 2881 3436 2590 
Q 3231 2300 2841 2188 
z
M 1259 4147 
L 1259 2491 
L 2053 2491 
Q 2509 2491 2742 2702 
Q 2975 2913 2975 3322 
Q 2975 3731 2742 3939 
Q 2509 4147 2053 4147 
L 1259 4147 
z
" id="DejaVuSans-52" transform="scale(0.015625)"/>
       <path d="M 3513 2113 
L 3513 0 
L 2938 0 
L 2938 2094 
Q 2938 2591 2744 2837 
Q 2550 3084 2163 3084 
Q 1697 3084 1428 2787 
Q 1159 2491 1159 1978 
L 1159 0 
L 581 0 
L 581 3500 
L 1159 3500 
L 1159 2956 
Q 1366 3272 1645 3428 
Q 1925 3584 2291 3584 
Q 2894 3584 3203 3211 
Q 3513 2838 3513 2113 
z
" id="DejaVuSans-6e" transform="scale(0.015625)"/>
       <path d="M 581 4863 
L 1159 4863 
L 1159 1991 
L 2875 3500 
L 3609 3500 
L 1753 1863 
L 3688 0 
L 2938 0 
L 1159 1709 
L 1159 0 
L 581 0 
L 581 4863 
z
" id="DejaVuSans-6b" transform="scale(0.015625)"/>
      </defs>
      <use xlink:href="#DejaVuSans-52"/>
      <use x="67.232422" xlink:href="#DejaVuSans-61"/>
      <use x="128.511719" xlink:href="#DejaVuSans-6e"/>
      <use x="191.890625" xlink:href="#DejaVuSans-6b"/>
     </g>
    </g>
   </g>
   <g id="line2d_29">
    <path clip-path="url(#pdc22461bcd)" d="M 77.401989 248.641263 
L 98.392584 324.380833 
L 119.38318 358.796279 
L 140.373775 419.524402 
L 161.364371 447.201756 
L 182.354967 468.354248 
L 203.345562 492.662556 
L 224.336158 506.394617 
L 245.326754 513.644463 
L 266.317349 518.207602 
L 287.307945 525.030987 
L 308.29854 533.048463 
L 329.289136 537.867479 
L 350.279732 542.302679 
L 371.270327 545.50114 
L 392.260923 547.334925 
L 413.251518 548.82754 
L 434.242114 550.149571 
L 455.23271 551.38631 
L 476.223305 552.026002 
L 497.213901 552.665694 
L 518.204496 553.220094 
L 539.195092 553.348033 
L 560.185688 553.81714 
L 581.176283 553.731848 
L 602.166879 553.81714 
L 623.157475 554.073017 
L 644.14807 554.328894 
L 665.138666 554.414187 
L 686.129261 554.840648 
" style="fill:none;stroke:#1f77b4;stroke-dasharray:1.5,2.475;stroke-dashoffset:0;stroke-width:1.5;"/>
   </g>
   <g id="line2d_30">
    <path clip-path="url(#pdc22461bcd)" d="M 77.401989 401.740956 
L 98.392584 469.718925 
L 119.38318 499.187417 
L 140.373775 523.708956 
L 161.364371 543.710002 
L 182.354967 547.121694 
L 203.345562 549.893694 
L 224.336158 552.15394 
L 245.326754 553.689202 
L 266.317349 554.584771 
L 287.307945 554.92594 
L 308.29854 555.139171 
L 329.289136 554.968587 
L 350.279732 555.181817 
L 371.270327 555.181817 
L 392.260923 555.26711 
L 413.251518 555.309756 
L 434.242114 555.309756 
L 455.23271 555.309756 
L 476.223305 555.309756 
L 497.213901 555.395048 
L 518.204496 555.395048 
L 539.195092 555.395048 
L 560.185688 555.395048 
L 581.176283 555.395048 
L 602.166879 555.395048 
L 623.157475 555.395048 
L 644.14807 555.395048 
L 665.138666 555.395048 
L 686.129261 555.395048 
" style="fill:none;stroke:#ff7f0e;stroke-dasharray:1.5,2.475;stroke-dashoffset:0;stroke-width:1.5;"/>
   </g>
   <g id="line2d_31">
    <path clip-path="url(#pdc22461bcd)" d="M 77.401989 382.251663 
L 98.392584 463.663171 
L 119.38318 502.300587 
L 140.373775 522.941325 
L 161.364371 530.788217 
L 182.354967 543.240894 
L 203.345562 548.998125 
L 224.336158 551.130433 
L 245.326754 553.177448 
L 266.317349 554.414187 
L 287.307945 554.968587 
L 308.29854 555.096525 
L 329.289136 555.26711 
L 350.279732 555.26711 
L 371.270327 555.395048 
L 392.260923 555.395048 
L 413.251518 555.395048 
L 434.242114 555.395048 
L 455.23271 555.395048 
L 476.223305 555.395048 
L 497.213901 555.395048 
L 518.204496 555.395048 
L 539.195092 555.395048 
L 560.185688 555.395048 
L 581.176283 555.395048 
L 602.166879 555.395048 
L 623.157475 555.395048 
L 644.14807 555.395048 
L 665.138666 555.395048 
L 686.129261 555.395048 
" style="fill:none;stroke:#2ca02c;stroke-dasharray:1.5,2.475;stroke-dashoffset:0;stroke-width:1.5;"/>
   </g>
   <g id="line2d_32">
    <path clip-path="url(#pdc22461bcd)" d="M 77.401989 424.684587 
L 98.392584 509.25191 
L 119.38318 538.336587 
L 140.373775 547.633448 
L 161.364371 550.320156 
L 182.354967 552.70834 
L 203.345562 554.15831 
L 224.336158 554.328894 
L 245.326754 554.92594 
L 266.317349 555.224463 
L 287.307945 555.309756 
L 308.29854 555.352402 
L 329.289136 555.395048 
L 350.279732 555.395048 
L 371.270327 555.395048 
L 392.260923 555.395048 
L 413.251518 555.395048 
L 434.242114 555.395048 
L 455.23271 555.395048 
L 476.223305 555.395048 
L 497.213901 555.395048 
L 518.204496 555.395048 
L 539.195092 555.395048 
L 560.185688 555.395048 
L 581.176283 555.395048 
L 602.166879 555.395048 
L 623.157475 555.395048 
L 644.14807 555.395048 
L 665.138666 555.395048 
L 686.129261 555.395048 
" style="fill:none;stroke:#d62728;stroke-dasharray:1.5,2.475;stroke-dashoffset:0;stroke-width:1.5;"/>
   </g>
   <g id="line2d_33">
    <path clip-path="url(#pdc22461bcd)" d="M 77.401989 429.034494 
L 98.392584 523.66631 
L 119.38318 544.008525 
L 140.373775 551.812771 
L 161.364371 553.859787 
L 182.354967 554.670063 
L 203.345562 555.224463 
L 224.336158 555.352402 
L 245.326754 555.352402 
L 266.317349 555.395048 
L 287.307945 555.395048 
L 308.29854 555.395048 
L 329.289136 555.395048 
L 350.279732 555.395048 
L 371.270327 555.395048 
L 392.260923 555.395048 
L 413.251518 555.395048 
L 434.242114 555.395048 
L 455.23271 555.395048 
L 476.223305 555.395048 
L 497.213901 555.395048 
L 518.204496 555.395048 
L 539.195092 555.395048 
L 560.185688 555.395048 
L 581.176283 555.395048 
L 602.166879 555.395048 
L 623.157475 555.395048 
L 644.14807 555.395048 
L 665.138666 555.395048 
L 686.129261 555.395048 
" style="fill:none;stroke:#9467bd;stroke-dasharray:1.5,2.475;stroke-dashoffset:0;stroke-width:1.5;"/>
   </g>
   <g id="line2d_34">
    <path clip-path="url(#pdc22461bcd)" d="M 77.401989 453.428094 
L 98.392584 532.877879 
L 119.38318 548.358433 
L 140.373775 554.030371 
L 161.364371 554.92594 
L 182.354967 554.968587 
L 203.345562 555.26711 
L 224.336158 555.395048 
L 245.326754 555.395048 
L 266.317349 555.395048 
L 287.307945 555.395048 
L 308.29854 555.395048 
L 329.289136 555.395048 
L 350.279732 555.395048 
L 371.270327 555.395048 
L 392.260923 555.395048 
L 413.251518 555.395048 
L 434.242114 555.395048 
L 455.23271 555.395048 
L 476.223305 555.395048 
L 497.213901 555.395048 
L 518.204496 555.395048 
L 539.195092 555.395048 
L 560.185688 555.395048 
L 581.176283 555.395048 
L 602.166879 555.395048 
L 623.157475 555.395048 
L 644.14807 555.395048 
L 665.138666 555.395048 
L 686.129261 555.395048 
" style="fill:none;stroke:#8c564b;stroke-dasharray:1.5,2.475;stroke-dashoffset:0;stroke-width:1.5;"/>
   </g>
   <g id="line2d_35">
    <path clip-path="url(#pdc22461bcd)" d="M 77.401989 281.819971 
L 98.392584 367.53874 
L 119.38318 424.769879 
L 140.373775 456.58391 
L 161.364371 480.252525 
L 182.354967 503.835848 
L 203.345562 518.548771 
L 224.336158 522.898679 
L 245.326754 531.08674 
L 266.317349 530.788217 
L 287.307945 535.86311 
L 308.29854 542.046802 
L 329.289136 545.629079 
L 350.279732 547.676094 
L 371.270327 548.230494 
L 392.260923 549.339294 
L 413.251518 551.215725 
L 434.242114 552.15394 
L 455.23271 552.196587 
L 476.223305 552.964217 
L 497.213901 553.220094 
L 518.204496 553.561263 
L 539.195092 554.243602 
L 560.185688 554.499479 
L 581.176283 554.627417 
L 602.166879 554.670063 
L 623.157475 554.755356 
L 644.14807 555.053879 
L 665.138666 555.096525 
L 686.129261 555.181817 
" style="fill:none;stroke:#e377c2;stroke-dasharray:1.5,2.475;stroke-dashoffset:0;stroke-width:1.5;"/>
   </g>
   <g id="line2d_36">
    <path clip-path="url(#pdc22461bcd)" d="M 77.401989 330.052771 
L 98.392584 417.818556 
L 119.38318 433.29911 
L 140.373775 483.621571 
L 161.364371 496.969817 
L 182.354967 511.512156 
L 203.345562 521.917817 
L 224.336158 530.020587 
L 245.326754 532.664648 
L 266.317349 537.483663 
L 287.307945 539.317448 
L 308.29854 542.132094 
L 329.289136 545.330556 
L 350.279732 547.590802 
L 371.270327 549.339294 
L 392.260923 550.405448 
L 413.251518 551.301017 
L 434.242114 552.324525 
L 455.23271 553.04951 
L 476.223305 553.220094 
L 497.213901 553.433325 
L 518.204496 553.731848 
L 539.195092 554.073017 
L 560.185688 554.328894 
L 581.176283 554.542125 
L 602.166879 554.670063 
L 623.157475 555.053879 
L 644.14807 555.139171 
L 665.138666 555.224463 
L 686.129261 555.224463 
" style="fill:none;stroke:#7f7f7f;stroke-dasharray:1.5,2.475;stroke-dashoffset:0;stroke-width:1.5;"/>
   </g>
   <g id="line2d_37">
    <path clip-path="url(#pdc22461bcd)" d="M 77.401989 468.99394 
L 98.392584 527.248587 
L 119.38318 546.780525 
L 140.373775 551.514248 
L 161.364371 554.37154 
L 182.354967 555.096525 
L 203.345562 555.395048 
L 224.336158 555.395048 
L 245.326754 555.395048 
L 266.317349 555.395048 
L 287.307945 555.395048 
L 308.29854 555.395048 
L 329.289136 555.395048 
L 350.279732 555.395048 
L 371.270327 555.395048 
L 392.260923 555.395048 
L 413.251518 555.395048 
L 434.242114 555.395048 
L 455.23271 555.395048 
L 476.223305 555.395048 
L 497.213901 555.395048 
L 518.204496 555.395048 
L 539.195092 555.395048 
L 560.185688 555.395048 
L 581.176283 555.395048 
L 602.166879 555.395048 
L 623.157475 555.395048 
L 644.14807 555.395048 
L 665.138666 555.395048 
L 686.129261 555.395048 
" style="fill:none;stroke:#bcbd22;stroke-linecap:square;stroke-width:1.5;"/>
   </g>
   <g id="line2d_38">
    <path clip-path="url(#pdc22461bcd)" d="M 77.401989 430.825633 
L 98.392584 523.836894 
L 119.38318 541.876217 
L 140.373775 551.428956 
L 161.364371 552.921571 
L 182.354967 554.755356 
L 203.345562 554.755356 
L 224.336158 555.26711 
L 245.326754 555.352402 
L 266.317349 555.395048 
L 287.307945 555.395048 
L 308.29854 555.395048 
L 329.289136 555.395048 
L 350.279732 555.395048 
L 371.270327 555.395048 
L 392.260923 555.395048 
L 413.251518 555.395048 
L 434.242114 555.395048 
L 455.23271 555.395048 
L 476.223305 555.395048 
L 497.213901 555.395048 
L 518.204496 555.395048 
L 539.195092 555.395048 
L 560.185688 555.395048 
L 581.176283 555.395048 
L 602.166879 555.395048 
L 623.157475 555.395048 
L 644.14807 555.395048 
L 665.138666 555.395048 
L 686.129261 555.395048 
" style="fill:none;stroke:#17becf;stroke-dasharray:1.5,2.475;stroke-dashoffset:0;stroke-width:1.5;"/>
   </g>
   <g id="line2d_39">
    <path clip-path="url(#pdc22461bcd)" d="M 77.401989 331.246863 
L 98.392584 412.487787 
L 119.38318 453.982494 
L 140.373775 477.224648 
L 161.364371 490.572894 
L 182.354967 510.659233 
L 203.345562 522.685448 
L 224.336158 532.664648 
L 245.326754 540.170371 
L 266.317349 544.690863 
L 287.307945 548.401079 
L 308.29854 550.661325 
L 329.289136 552.026002 
L 350.279732 552.665694 
L 371.270327 553.134802 
L 392.260923 553.220094 
L 413.251518 554.115663 
L 434.242114 554.542125 
L 455.23271 554.840648 
L 476.223305 555.096525 
L 497.213901 554.92594 
L 518.204496 555.053879 
L 539.195092 555.224463 
L 560.185688 555.224463 
L 581.176283 555.26711 
L 602.166879 555.352402 
L 623.157475 555.352402 
L 644.14807 555.352402 
L 665.138666 555.352402 
L 686.129261 555.352402 
" style="fill:none;stroke:#1f77b4;stroke-dasharray:1.5,2.475;stroke-dashoffset:0;stroke-width:1.5;"/>
   </g>
   <g id="line2d_40">
    <path clip-path="url(#pdc22461bcd)" d="M 77.401989 270.30551 
L 98.392584 369.585756 
L 119.38318 411.208402 
L 140.373775 450.186987 
L 161.364371 486.350925 
L 182.354967 494.965448 
L 203.345562 513.68711 
L 224.336158 526.566248 
L 245.326754 533.09111 
L 266.317349 540.980648 
L 287.307945 545.330556 
L 308.29854 547.50551 
L 329.289136 549.595171 
L 350.279732 551.428956 
L 371.270327 552.878925 
L 392.260923 553.305387 
L 413.251518 553.81714 
L 434.242114 553.902433 
L 455.23271 554.243602 
L 476.223305 554.840648 
L 497.213901 555.011233 
L 518.204496 555.139171 
L 539.195092 555.096525 
L 560.185688 555.181817 
L 581.176283 555.181817 
L 602.166879 555.181817 
L 623.157475 555.309756 
L 644.14807 555.309756 
L 665.138666 555.395048 
L 686.129261 555.395048 
" style="fill:none;stroke:#ff7f0e;stroke-dasharray:1.5,2.475;stroke-dashoffset:0;stroke-width:1.5;"/>
   </g>
   <g id="line2d_41">
    <path clip-path="url(#pdc22461bcd)" d="M 77.401989 294.528525 
L 98.392584 393.04114 
L 119.38318 430.356525 
L 140.373775 445.325325 
L 161.364371 460.166187 
L 182.354967 487.331787 
L 203.345562 497.225694 
L 224.336158 513.729756 
L 245.326754 519.23111 
L 266.317349 527.291233 
L 287.307945 535.905756 
L 308.29854 540.042433 
L 329.289136 544.690863 
L 350.279732 547.249633 
L 371.270327 550.149571 
L 392.260923 551.38631 
L 413.251518 552.878925 
L 434.242114 553.689202 
L 455.23271 554.414187 
L 476.223305 554.286248 
L 497.213901 554.755356 
L 518.204496 554.92594 
L 539.195092 555.053879 
L 560.185688 554.755356 
L 581.176283 554.627417 
L 602.166879 554.71271 
L 623.157475 554.71271 
L 644.14807 554.968587 
L 665.138666 554.968587 
L 686.129261 555.224463 
" style="fill:none;stroke:#2ca02c;stroke-dasharray:1.5,2.475;stroke-dashoffset:0;stroke-width:1.5;"/>
   </g>
   <g id="line2d_42">
    <path clip-path="url(#pdc22461bcd)" d="M 77.401989 358.11394 
L 98.392584 448.523787 
L 119.38318 483.664217 
L 140.373775 512.834187 
L 161.364371 530.063233 
L 182.354967 539.701263 
L 203.345562 544.093817 
L 224.336158 547.462863 
L 245.326754 550.576033 
L 266.317349 551.514248 
L 287.307945 552.068648 
L 308.29854 553.04951 
L 329.289136 553.987725 
L 350.279732 554.456833 
L 371.270327 555.053879 
L 392.260923 555.224463 
L 413.251518 555.26711 
L 434.242114 555.224463 
L 455.23271 555.309756 
L 476.223305 555.309756 
L 497.213901 555.352402 
L 518.204496 555.395048 
L 539.195092 555.395048 
L 560.185688 555.395048 
L 581.176283 555.395048 
L 602.166879 555.395048 
L 623.157475 555.395048 
L 644.14807 555.395048 
L 665.138666 555.395048 
L 686.129261 555.395048 
" style="fill:none;stroke:#d62728;stroke-dasharray:1.5,2.475;stroke-dashoffset:0;stroke-width:1.5;"/>
   </g>
   <g id="line2d_43">
    <path clip-path="url(#pdc22461bcd)" d="M 77.401989 415.515663 
L 98.392584 497.524217 
L 119.38318 529.892648 
L 140.373775 544.818802 
L 161.364371 550.959848 
L 182.354967 552.878925 
L 203.345562 554.328894 
L 224.336158 554.71271 
L 245.326754 555.053879 
L 266.317349 555.395048 
L 287.307945 555.395048 
L 308.29854 555.395048 
L 329.289136 555.395048 
L 350.279732 555.395048 
L 371.270327 555.395048 
L 392.260923 555.395048 
L 413.251518 555.395048 
L 434.242114 555.395048 
L 455.23271 555.395048 
L 476.223305 555.395048 
L 497.213901 555.395048 
L 518.204496 555.395048 
L 539.195092 555.395048 
L 560.185688 555.395048 
L 581.176283 555.395048 
L 602.166879 555.395048 
L 623.157475 555.395048 
L 644.14807 555.395048 
L 665.138666 555.395048 
L 686.129261 555.395048 
" style="fill:none;stroke:#9467bd;stroke-dasharray:1.5,2.475;stroke-dashoffset:0;stroke-width:1.5;"/>
   </g>
   <g id="line2d_44">
    <path clip-path="url(#pdc22461bcd)" d="M 77.401989 319.64711 
L 98.392584 379.863479 
L 119.38318 438.800463 
L 140.373775 475.09234 
L 161.364371 497.097756 
L 182.354967 506.565202 
L 203.345562 520.126679 
L 224.336158 524.43394 
L 245.326754 523.197202 
L 266.317349 527.333879 
L 287.307945 534.285202 
L 308.29854 537.014556 
L 329.289136 542.558556 
L 350.279732 544.093817 
L 371.270327 545.159971 
L 392.260923 547.804033 
L 413.251518 550.320156 
L 434.242114 551.898063 
L 455.23271 552.793633 
L 476.223305 553.81714 
L 497.213901 553.81714 
L 518.204496 554.37154 
L 539.195092 554.798002 
L 560.185688 554.627417 
L 581.176283 554.798002 
L 602.166879 554.840648 
L 623.157475 554.92594 
L 644.14807 555.053879 
L 665.138666 555.181817 
L 686.129261 555.26711 
" style="fill:none;stroke:#8c564b;stroke-dasharray:1.5,2.475;stroke-dashoffset:0;stroke-width:1.5;"/>
   </g>
   <g id="patch_3">
    <path d="M 46.965625 576.718125 
L 46.965625 22.318125 
" style="fill:none;stroke:#000000;stroke-linecap:square;stroke-linejoin:miter;stroke-width:0.8;"/>
   </g>
   <g id="patch_4">
    <path d="M 716.565625 576.718125 
L 716.565625 22.318125 
" style="fill:none;stroke:#000000;stroke-linecap:square;stroke-linejoin:miter;stroke-width:0.8;"/>
   </g>
   <g id="patch_5">
    <path d="M 46.965625 576.718125 
L 716.565625 576.718125 
" style="fill:none;stroke:#000000;stroke-linecap:square;stroke-linejoin:miter;stroke-width:0.8;"/>
   </g>
   <g id="patch_6">
    <path d="M 46.965625 22.318125 
L 716.565625 22.318125 
" style="fill:none;stroke:#000000;stroke-linecap:square;stroke-linejoin:miter;stroke-width:0.8;"/>
   </g>
   <g id="text_17">
    <!-- Rank plots for 16 fixed key datasets for model DPA-contest_v4_trained_on_set_08 -->
    <g transform="translate(136.82125 16.318125)scale(0.12 -0.12)">
     <defs>
      <path d="M 1159 525 
L 1159 -1331 
L 581 -1331 
L 581 3500 
L 1159 3500 
L 1159 2969 
Q 1341 3281 1617 3432 
Q 1894 3584 2278 3584 
Q 2916 3584 3314 3078 
Q 3713 2572 3713 1747 
Q 3713 922 3314 415 
Q 2916 -91 2278 -91 
Q 1894 -91 1617 61 
Q 1341 213 1159 525 
z
M 3116 1747 
Q 3116 2381 2855 2742 
Q 2594 3103 2138 3103 
Q 1681 3103 1420 2742 
Q 1159 2381 1159 1747 
Q 1159 1113 1420 752 
Q 1681 391 2138 391 
Q 2594 391 2855 752 
Q 3116 1113 3116 1747 
z
" id="DejaVuSans-70" transform="scale(0.015625)"/>
      <path d="M 603 4863 
L 1178 4863 
L 1178 0 
L 603 0 
L 603 4863 
z
" id="DejaVuSans-6c" transform="scale(0.015625)"/>
      <path d="M 603 3500 
L 1178 3500 
L 1178 0 
L 603 0 
L 603 3500 
z
M 603 4863 
L 1178 4863 
L 1178 4134 
L 603 4134 
L 603 4863 
z
" id="DejaVuSans-69" transform="scale(0.015625)"/>
      <path d="M 3513 3500 
L 2247 1797 
L 3578 0 
L 2900 0 
L 1881 1375 
L 863 0 
L 184 0 
L 1544 1831 
L 300 3500 
L 978 3500 
L 1906 2253 
L 2834 3500 
L 3513 3500 
z
" id="DejaVuSans-78" transform="scale(0.015625)"/>
      <path d="M 2906 2969 
L 2906 4863 
L 3481 4863 
L 3481 0 
L 2906 0 
L 2906 525 
Q 2725 213 2448 61 
Q 2172 -91 1784 -91 
Q 1150 -91 751 415 
Q 353 922 353 1747 
Q 353 2572 751 3078 
Q 1150 3584 1784 3584 
Q 2172 3584 2448 3432 
Q 2725 3281 2906 2969 
z
M 947 1747 
Q 947 1113 1208 752 
Q 1469 391 1925 391 
Q 2381 391 2643 752 
Q 2906 1113 2906 1747 
Q 2906 2381 2643 2742 
Q 2381 3103 1925 3103 
Q 1469 3103 1208 2742 
Q 947 2381 947 1747 
z
" id="DejaVuSans-64" transform="scale(0.015625)"/>
      <path d="M 2059 -325 
Q 1816 -950 1584 -1140 
Q 1353 -1331 966 -1331 
L 506 -1331 
L 506 -850 
L 844 -850 
Q 1081 -850 1212 -737 
Q 1344 -625 1503 -206 
L 1606 56 
L 191 3500 
L 800 3500 
L 1894 763 
L 2988 3500 
L 3597 3500 
L 2059 -325 
z
" id="DejaVuSans-79" transform="scale(0.015625)"/>
      <path d="M 1259 4147 
L 1259 519 
L 2022 519 
Q 2988 519 3436 956 
Q 3884 1394 3884 2338 
Q 3884 3275 3436 3711 
Q 2988 4147 2022 4147 
L 1259 4147 
z
M 628 4666 
L 1925 4666 
Q 3281 4666 3915 4102 
Q 4550 3538 4550 2338 
Q 4550 1131 3912 565 
Q 3275 0 1925 0 
L 628 0 
L 628 4666 
z
" id="DejaVuSans-44" transform="scale(0.015625)"/>
      <path d="M 1259 4147 
L 1259 2394 
L 2053 2394 
Q 2494 2394 2734 2622 
Q 2975 2850 2975 3272 
Q 2975 3691 2734 3919 
Q 2494 4147 2053 4147 
L 1259 4147 
z
M 628 4666 
L 2053 4666 
Q 2838 4666 3239 4311 
Q 3641 3956 3641 3272 
Q 3641 2581 3239 2228 
Q 2838 1875 2053 1875 
L 1259 1875 
L 1259 0 
L 628 0 
L 628 4666 
z
" id="DejaVuSans-50" transform="scale(0.015625)"/>
      <path d="M 2188 4044 
L 1331 1722 
L 3047 1722 
L 2188 4044 
z
M 1831 4666 
L 2547 4666 
L 4325 0 
L 3669 0 
L 3244 1197 
L 1141 1197 
L 716 0 
L 50 0 
L 1831 4666 
z
" id="DejaVuSans-41" transform="scale(0.015625)"/>
      <path d="M 313 2009 
L 1997 2009 
L 1997 1497 
L 313 1497 
L 313 2009 
z
" id="DejaVuSans-2d" transform="scale(0.015625)"/>
      <path d="M 3263 -1063 
L 3263 -1509 
L -63 -1509 
L -63 -1063 
L 3263 -1063 
z
" id="DejaVuSans-5f" transform="scale(0.015625)"/>
      <path d="M 191 3500 
L 800 3500 
L 1894 563 
L 2988 3500 
L 3597 3500 
L 2284 0 
L 1503 0 
L 191 3500 
z
" id="DejaVuSans-76" transform="scale(0.015625)"/>
     </defs>
     <use xlink:href="#DejaVuSans-52"/>
     <use x="67.232422" xlink:href="#DejaVuSans-61"/>
     <use x="128.511719" xlink:href="#DejaVuSans-6e"/>
     <use x="191.890625" xlink:href="#DejaVuSans-6b"/>
     <use x="249.800781" xlink:href="#DejaVuSans-20"/>
     <use x="281.587891" xlink:href="#DejaVuSans-70"/>
     <use x="345.064453" xlink:href="#DejaVuSans-6c"/>
     <use x="372.847656" xlink:href="#DejaVuSans-6f"/>
     <use x="434.029297" xlink:href="#DejaVuSans-74"/>
     <use x="473.238281" xlink:href="#DejaVuSans-73"/>
     <use x="525.337891" xlink:href="#DejaVuSans-20"/>
     <use x="557.125" xlink:href="#DejaVuSans-66"/>
     <use x="592.330078" xlink:href="#DejaVuSans-6f"/>
     <use x="653.511719" xlink:href="#DejaVuSans-72"/>
     <use x="694.625" xlink:href="#DejaVuSans-20"/>
     <use x="726.412109" xlink:href="#DejaVuSans-31"/>
     <use x="790.035156" xlink:href="#DejaVuSans-36"/>
     <use x="853.658203" xlink:href="#DejaVuSans-20"/>
     <use x="885.445312" xlink:href="#DejaVuSans-66"/>
     <use x="920.650391" xlink:href="#DejaVuSans-69"/>
     <use x="948.433594" xlink:href="#DejaVuSans-78"/>
     <use x="1004.488281" xlink:href="#DejaVuSans-65"/>
     <use x="1066.011719" xlink:href="#DejaVuSans-64"/>
     <use x="1129.488281" xlink:href="#DejaVuSans-20"/>
     <use x="1161.275391" xlink:href="#DejaVuSans-6b"/>
     <use x="1215.560547" xlink:href="#DejaVuSans-65"/>
     <use x="1277.083984" xlink:href="#DejaVuSans-79"/>
     <use x="1336.263672" xlink:href="#DejaVuSans-20"/>
     <use x="1368.050781" xlink:href="#DejaVuSans-64"/>
     <use x="1431.527344" xlink:href="#DejaVuSans-61"/>
     <use x="1492.806641" xlink:href="#DejaVuSans-74"/>
     <use x="1532.015625" xlink:href="#DejaVuSans-61"/>
     <use x="1593.294922" xlink:href="#DejaVuSans-73"/>
     <use x="1645.394531" xlink:href="#DejaVuSans-65"/>
     <use x="1706.917969" xlink:href="#DejaVuSans-74"/>
     <use x="1746.126953" xlink:href="#DejaVuSans-73"/>
     <use x="1798.226562" xlink:href="#DejaVuSans-20"/>
     <use x="1830.013672" xlink:href="#DejaVuSans-66"/>
     <use x="1865.21875" xlink:href="#DejaVuSans-6f"/>
     <use x="1926.400391" xlink:href="#DejaVuSans-72"/>
     <use x="1967.513672" xlink:href="#DejaVuSans-20"/>
     <use x="1999.300781" xlink:href="#DejaVuSans-6d"/>
     <use x="2096.712891" xlink:href="#DejaVuSans-6f"/>
     <use x="2157.894531" xlink:href="#DejaVuSans-64"/>
     <use x="2221.371094" xlink:href="#DejaVuSans-65"/>
     <use x="2282.894531" xlink:href="#DejaVuSans-6c"/>
     <use x="2310.677734" xlink:href="#DejaVuSans-20"/>
     <use x="2342.464844" xlink:href="#DejaVuSans-44"/>
     <use x="2419.466797" xlink:href="#DejaVuSans-50"/>
     <use x="2473.394531" xlink:href="#DejaVuSans-41"/>
     <use x="2539.552734" xlink:href="#DejaVuSans-2d"/>
     <use x="2575.636719" xlink:href="#DejaVuSans-63"/>
     <use x="2630.617188" xlink:href="#DejaVuSans-6f"/>
     <use x="2691.798828" xlink:href="#DejaVuSans-6e"/>
     <use x="2755.177734" xlink:href="#DejaVuSans-74"/>
     <use x="2794.386719" xlink:href="#DejaVuSans-65"/>
     <use x="2855.910156" xlink:href="#DejaVuSans-73"/>
     <use x="2908.009766" xlink:href="#DejaVuSans-74"/>
     <use x="2947.21875" xlink:href="#DejaVuSans-5f"/>
     <use x="2997.21875" xlink:href="#DejaVuSans-76"/>
     <use x="3056.398438" xlink:href="#DejaVuSans-34"/>
     <use x="3120.021484" xlink:href="#DejaVuSans-5f"/>
     <use x="3170.021484" xlink:href="#DejaVuSans-74"/>
     <use x="3209.230469" xlink:href="#DejaVuSans-72"/>
     <use x="3250.34375" xlink:href="#DejaVuSans-61"/>
     <use x="3311.623047" xlink:href="#DejaVuSans-69"/>
     <use x="3339.40625" xlink:href="#DejaVuSans-6e"/>
     <use x="3402.785156" xlink:href="#DejaVuSans-65"/>
     <use x="3464.308594" xlink:href="#DejaVuSans-64"/>
     <use x="3527.785156" xlink:href="#DejaVuSans-5f"/>
     <use x="3577.785156" xlink:href="#DejaVuSans-6f"/>
     <use x="3638.966797" xlink:href="#DejaVuSans-6e"/>
     <use x="3702.345703" xlink:href="#DejaVuSans-5f"/>
     <use x="3752.345703" xlink:href="#DejaVuSans-73"/>
     <use x="3804.445312" xlink:href="#DejaVuSans-65"/>
     <use x="3865.96875" xlink:href="#DejaVuSans-74"/>
     <use x="3905.177734" xlink:href="#DejaVuSans-5f"/>
     <use x="3955.177734" xlink:href="#DejaVuSans-30"/>
     <use x="4018.800781" xlink:href="#DejaVuSans-38"/>
    </g>
   </g>
   <g id="legend_1">
    <g id="patch_7">
     <path d="M 728.565625 274.618125 
L 844.320312 274.618125 
Q 846.320312 274.618125 846.320312 272.618125 
L 846.320312 34.318125 
Q 846.320312 32.318125 844.320312 32.318125 
L 728.565625 32.318125 
Q 726.565625 32.318125 726.565625 34.318125 
L 726.565625 272.618125 
Q 726.565625 274.618125 728.565625 274.618125 
z
" style="fill:#ffffff;opacity:0.8;stroke:#cccccc;stroke-linejoin:miter;"/>
    </g>
    <g id="line2d_45">
     <path d="M 730.565625 40.416562 
L 750.565625 40.416562 
" style="fill:none;stroke:#1f77b4;stroke-dasharray:1.5,2.475;stroke-dashoffset:0;stroke-width:1.5;"/>
    </g>
    <g id="line2d_46"/>
    <g id="text_18">
     <!-- set_00 (key 130) -->
     <g transform="translate(758.565625 43.916562)scale(0.1 -0.1)">
      <defs>
       <path d="M 1984 4856 
Q 1566 4138 1362 3434 
Q 1159 2731 1159 2009 
Q 1159 1288 1364 580 
Q 1569 -128 1984 -844 
L 1484 -844 
Q 1016 -109 783 600 
Q 550 1309 550 2009 
Q 550 2706 781 3412 
Q 1013 4119 1484 4856 
L 1984 4856 
z
" id="DejaVuSans-28" transform="scale(0.015625)"/>
       <path d="M 513 4856 
L 1013 4856 
Q 1481 4119 1714 3412 
Q 1947 2706 1947 2009 
Q 1947 1309 1714 600 
Q 1481 -109 1013 -844 
L 513 -844 
Q 928 -128 1133 580 
Q 1338 1288 1338 2009 
Q 1338 2731 1133 3434 
Q 928 4138 513 4856 
z
" id="DejaVuSans-29" transform="scale(0.015625)"/>
      </defs>
      <use xlink:href="#DejaVuSans-73"/>
      <use x="52.099609" xlink:href="#DejaVuSans-65"/>
      <use x="113.623047" xlink:href="#DejaVuSans-74"/>
      <use x="152.832031" xlink:href="#DejaVuSans-5f"/>
      <use x="202.832031" xlink:href="#DejaVuSans-30"/>
      <use x="266.455078" xlink:href="#DejaVuSans-30"/>
      <use x="330.078125" xlink:href="#DejaVuSans-20"/>
      <use x="361.865234" xlink:href="#DejaVuSans-28"/>
      <use x="400.878906" xlink:href="#DejaVuSans-6b"/>
      <use x="455.164062" xlink:href="#DejaVuSans-65"/>
      <use x="516.6875" xlink:href="#DejaVuSans-79"/>
      <use x="575.867188" xlink:href="#DejaVuSans-20"/>
      <use x="607.654297" xlink:href="#DejaVuSans-31"/>
      <use x="671.277344" xlink:href="#DejaVuSans-33"/>
      <use x="734.900391" xlink:href="#DejaVuSans-30"/>
      <use x="798.523438" xlink:href="#DejaVuSans-29"/>
     </g>
    </g>
    <g id="line2d_47">
     <path d="M 730.565625 55.372812 
L 750.565625 55.372812 
" style="fill:none;stroke:#ff7f0e;stroke-dasharray:1.5,2.475;stroke-dashoffset:0;stroke-width:1.5;"/>
    </g>
    <g id="line2d_48"/>
    <g id="text_19">
     <!-- set_01 (key 239) -->
     <g transform="translate(758.565625 58.872812)scale(0.1 -0.1)">
      <defs>
       <path d="M 703 97 
L 703 672 
Q 941 559 1184 500 
Q 1428 441 1663 441 
Q 2288 441 2617 861 
Q 2947 1281 2994 2138 
Q 2813 1869 2534 1725 
Q 2256 1581 1919 1581 
Q 1219 1581 811 2004 
Q 403 2428 403 3163 
Q 403 3881 828 4315 
Q 1253 4750 1959 4750 
Q 2769 4750 3195 4129 
Q 3622 3509 3622 2328 
Q 3622 1225 3098 567 
Q 2575 -91 1691 -91 
Q 1453 -91 1209 -44 
Q 966 3 703 97 
z
M 1959 2075 
Q 2384 2075 2632 2365 
Q 2881 2656 2881 3163 
Q 2881 3666 2632 3958 
Q 2384 4250 1959 4250 
Q 1534 4250 1286 3958 
Q 1038 3666 1038 3163 
Q 1038 2656 1286 2365 
Q 1534 2075 1959 2075 
z
" id="DejaVuSans-39" transform="scale(0.015625)"/>
      </defs>
      <use xlink:href="#DejaVuSans-73"/>
      <use x="52.099609" xlink:href="#DejaVuSans-65"/>
      <use x="113.623047" xlink:href="#DejaVuSans-74"/>
      <use x="152.832031" xlink:href="#DejaVuSans-5f"/>
      <use x="202.832031" xlink:href="#DejaVuSans-30"/>
      <use x="266.455078" xlink:href="#DejaVuSans-31"/>
      <use x="330.078125" xlink:href="#DejaVuSans-20"/>
      <use x="361.865234" xlink:href="#DejaVuSans-28"/>
      <use x="400.878906" xlink:href="#DejaVuSans-6b"/>
      <use x="455.164062" xlink:href="#DejaVuSans-65"/>
      <use x="516.6875" xlink:href="#DejaVuSans-79"/>
      <use x="575.867188" xlink:href="#DejaVuSans-20"/>
      <use x="607.654297" xlink:href="#DejaVuSans-32"/>
      <use x="671.277344" xlink:href="#DejaVuSans-33"/>
      <use x="734.900391" xlink:href="#DejaVuSans-39"/>
      <use x="798.523438" xlink:href="#DejaVuSans-29"/>
     </g>
    </g>
    <g id="line2d_49">
     <path d="M 730.565625 70.329062 
L 750.565625 70.329062 
" style="fill:none;stroke:#2ca02c;stroke-dasharray:1.5,2.475;stroke-dashoffset:0;stroke-width:1.5;"/>
    </g>
    <g id="line2d_50"/>
    <g id="text_20">
     <!-- set_02 (key 121) -->
     <g transform="translate(758.565625 73.829062)scale(0.1 -0.1)">
      <use xlink:href="#DejaVuSans-73"/>
      <use x="52.099609" xlink:href="#DejaVuSans-65"/>
      <use x="113.623047" xlink:href="#DejaVuSans-74"/>
      <use x="152.832031" xlink:href="#DejaVuSans-5f"/>
      <use x="202.832031" xlink:href="#DejaVuSans-30"/>
      <use x="266.455078" xlink:href="#DejaVuSans-32"/>
      <use x="330.078125" xlink:href="#DejaVuSans-20"/>
      <use x="361.865234" xlink:href="#DejaVuSans-28"/>
      <use x="400.878906" xlink:href="#DejaVuSans-6b"/>
      <use x="455.164062" xlink:href="#DejaVuSans-65"/>
      <use x="516.6875" xlink:href="#DejaVuSans-79"/>
      <use x="575.867188" xlink:href="#DejaVuSans-20"/>
      <use x="607.654297" xlink:href="#DejaVuSans-31"/>
      <use x="671.277344" xlink:href="#DejaVuSans-32"/>
      <use x="734.900391" xlink:href="#DejaVuSans-31"/>
      <use x="798.523438" xlink:href="#DejaVuSans-29"/>
     </g>
    </g>
    <g id="line2d_51">
     <path d="M 730.565625 85.285313 
L 750.565625 85.285313 
" style="fill:none;stroke:#d62728;stroke-dasharray:1.5,2.475;stroke-dashoffset:0;stroke-width:1.5;"/>
    </g>
    <g id="line2d_52"/>
    <g id="text_21">
     <!-- set_03 (key 239) -->
     <g transform="translate(758.565625 88.785313)scale(0.1 -0.1)">
      <use xlink:href="#DejaVuSans-73"/>
      <use x="52.099609" xlink:href="#DejaVuSans-65"/>
      <use x="113.623047" xlink:href="#DejaVuSans-74"/>
      <use x="152.832031" xlink:href="#DejaVuSans-5f"/>
      <use x="202.832031" xlink:href="#DejaVuSans-30"/>
      <use x="266.455078" xlink:href="#DejaVuSans-33"/>
      <use x="330.078125" xlink:href="#DejaVuSans-20"/>
      <use x="361.865234" xlink:href="#DejaVuSans-28"/>
      <use x="400.878906" xlink:href="#DejaVuSans-6b"/>
      <use x="455.164062" xlink:href="#DejaVuSans-65"/>
      <use x="516.6875" xlink:href="#DejaVuSans-79"/>
      <use x="575.867188" xlink:href="#DejaVuSans-20"/>
      <use x="607.654297" xlink:href="#DejaVuSans-32"/>
      <use x="671.277344" xlink:href="#DejaVuSans-33"/>
      <use x="734.900391" xlink:href="#DejaVuSans-39"/>
      <use x="798.523438" xlink:href="#DejaVuSans-29"/>
     </g>
    </g>
    <g id="line2d_53">
     <path d="M 730.565625 100.241562 
L 750.565625 100.241562 
" style="fill:none;stroke:#9467bd;stroke-dasharray:1.5,2.475;stroke-dashoffset:0;stroke-width:1.5;"/>
    </g>
    <g id="line2d_54"/>
    <g id="text_22">
     <!-- set_04 (key 106) -->
     <g transform="translate(758.565625 103.741562)scale(0.1 -0.1)">
      <use xlink:href="#DejaVuSans-73"/>
      <use x="52.099609" xlink:href="#DejaVuSans-65"/>
      <use x="113.623047" xlink:href="#DejaVuSans-74"/>
      <use x="152.832031" xlink:href="#DejaVuSans-5f"/>
      <use x="202.832031" xlink:href="#DejaVuSans-30"/>
      <use x="266.455078" xlink:href="#DejaVuSans-34"/>
      <use x="330.078125" xlink:href="#DejaVuSans-20"/>
      <use x="361.865234" xlink:href="#DejaVuSans-28"/>
      <use x="400.878906" xlink:href="#DejaVuSans-6b"/>
      <use x="455.164062" xlink:href="#DejaVuSans-65"/>
      <use x="516.6875" xlink:href="#DejaVuSans-79"/>
      <use x="575.867188" xlink:href="#DejaVuSans-20"/>
      <use x="607.654297" xlink:href="#DejaVuSans-31"/>
      <use x="671.277344" xlink:href="#DejaVuSans-30"/>
      <use x="734.900391" xlink:href="#DejaVuSans-36"/>
      <use x="798.523438" xlink:href="#DejaVuSans-29"/>
     </g>
    </g>
    <g id="line2d_55">
     <path d="M 730.565625 115.197812 
L 750.565625 115.197812 
" style="fill:none;stroke:#8c564b;stroke-dasharray:1.5,2.475;stroke-dashoffset:0;stroke-width:1.5;"/>
    </g>
    <g id="line2d_56"/>
    <g id="text_23">
     <!-- set_05 (key 192) -->
     <g transform="translate(758.565625 118.697812)scale(0.1 -0.1)">
      <use xlink:href="#DejaVuSans-73"/>
      <use x="52.099609" xlink:href="#DejaVuSans-65"/>
      <use x="113.623047" xlink:href="#DejaVuSans-74"/>
      <use x="152.832031" xlink:href="#DejaVuSans-5f"/>
      <use x="202.832031" xlink:href="#DejaVuSans-30"/>
      <use x="266.455078" xlink:href="#DejaVuSans-35"/>
      <use x="330.078125" xlink:href="#DejaVuSans-20"/>
      <use x="361.865234" xlink:href="#DejaVuSans-28"/>
      <use x="400.878906" xlink:href="#DejaVuSans-6b"/>
      <use x="455.164062" xlink:href="#DejaVuSans-65"/>
      <use x="516.6875" xlink:href="#DejaVuSans-79"/>
      <use x="575.867188" xlink:href="#DejaVuSans-20"/>
      <use x="607.654297" xlink:href="#DejaVuSans-31"/>
      <use x="671.277344" xlink:href="#DejaVuSans-39"/>
      <use x="734.900391" xlink:href="#DejaVuSans-32"/>
      <use x="798.523438" xlink:href="#DejaVuSans-29"/>
     </g>
    </g>
    <g id="line2d_57">
     <path d="M 730.565625 130.154062 
L 750.565625 130.154062 
" style="fill:none;stroke:#e377c2;stroke-dasharray:1.5,2.475;stroke-dashoffset:0;stroke-width:1.5;"/>
    </g>
    <g id="line2d_58"/>
    <g id="text_24">
     <!-- set_06 (key 056) -->
     <g transform="translate(758.565625 133.654062)scale(0.1 -0.1)">
      <use xlink:href="#DejaVuSans-73"/>
      <use x="52.099609" xlink:href="#DejaVuSans-65"/>
      <use x="113.623047" xlink:href="#DejaVuSans-74"/>
      <use x="152.832031" xlink:href="#DejaVuSans-5f"/>
      <use x="202.832031" xlink:href="#DejaVuSans-30"/>
      <use x="266.455078" xlink:href="#DejaVuSans-36"/>
      <use x="330.078125" xlink:href="#DejaVuSans-20"/>
      <use x="361.865234" xlink:href="#DejaVuSans-28"/>
      <use x="400.878906" xlink:href="#DejaVuSans-6b"/>
      <use x="455.164062" xlink:href="#DejaVuSans-65"/>
      <use x="516.6875" xlink:href="#DejaVuSans-79"/>
      <use x="575.867188" xlink:href="#DejaVuSans-20"/>
      <use x="607.654297" xlink:href="#DejaVuSans-30"/>
      <use x="671.277344" xlink:href="#DejaVuSans-35"/>
      <use x="734.900391" xlink:href="#DejaVuSans-36"/>
      <use x="798.523438" xlink:href="#DejaVuSans-29"/>
     </g>
    </g>
    <g id="line2d_59">
     <path d="M 730.565625 145.110312 
L 750.565625 145.110312 
" style="fill:none;stroke:#7f7f7f;stroke-dasharray:1.5,2.475;stroke-dashoffset:0;stroke-width:1.5;"/>
    </g>
    <g id="line2d_60"/>
    <g id="text_25">
     <!-- set_07 (key 047) -->
     <g transform="translate(758.565625 148.610312)scale(0.1 -0.1)">
      <defs>
       <path d="M 525 4666 
L 3525 4666 
L 3525 4397 
L 1831 0 
L 1172 0 
L 2766 4134 
L 525 4134 
L 525 4666 
z
" id="DejaVuSans-37" transform="scale(0.015625)"/>
      </defs>
      <use xlink:href="#DejaVuSans-73"/>
      <use x="52.099609" xlink:href="#DejaVuSans-65"/>
      <use x="113.623047" xlink:href="#DejaVuSans-74"/>
      <use x="152.832031" xlink:href="#DejaVuSans-5f"/>
      <use x="202.832031" xlink:href="#DejaVuSans-30"/>
      <use x="266.455078" xlink:href="#DejaVuSans-37"/>
      <use x="330.078125" xlink:href="#DejaVuSans-20"/>
      <use x="361.865234" xlink:href="#DejaVuSans-28"/>
      <use x="400.878906" xlink:href="#DejaVuSans-6b"/>
      <use x="455.164062" xlink:href="#DejaVuSans-65"/>
      <use x="516.6875" xlink:href="#DejaVuSans-79"/>
      <use x="575.867188" xlink:href="#DejaVuSans-20"/>
      <use x="607.654297" xlink:href="#DejaVuSans-30"/>
      <use x="671.277344" xlink:href="#DejaVuSans-34"/>
      <use x="734.900391" xlink:href="#DejaVuSans-37"/>
      <use x="798.523438" xlink:href="#DejaVuSans-29"/>
     </g>
    </g>
    <g id="line2d_61">
     <path d="M 730.565625 160.066562 
L 750.565625 160.066562 
" style="fill:none;stroke:#bcbd22;stroke-linecap:square;stroke-width:1.5;"/>
    </g>
    <g id="line2d_62"/>
    <g id="text_26">
     <!-- set_08 (key 243) -->
     <g transform="translate(758.565625 163.566562)scale(0.1 -0.1)">
      <use xlink:href="#DejaVuSans-73"/>
      <use x="52.099609" xlink:href="#DejaVuSans-65"/>
      <use x="113.623047" xlink:href="#DejaVuSans-74"/>
      <use x="152.832031" xlink:href="#DejaVuSans-5f"/>
      <use x="202.832031" xlink:href="#DejaVuSans-30"/>
      <use x="266.455078" xlink:href="#DejaVuSans-38"/>
      <use x="330.078125" xlink:href="#DejaVuSans-20"/>
      <use x="361.865234" xlink:href="#DejaVuSans-28"/>
      <use x="400.878906" xlink:href="#DejaVuSans-6b"/>
      <use x="455.164062" xlink:href="#DejaVuSans-65"/>
      <use x="516.6875" xlink:href="#DejaVuSans-79"/>
      <use x="575.867188" xlink:href="#DejaVuSans-20"/>
      <use x="607.654297" xlink:href="#DejaVuSans-32"/>
      <use x="671.277344" xlink:href="#DejaVuSans-34"/>
      <use x="734.900391" xlink:href="#DejaVuSans-33"/>
      <use x="798.523438" xlink:href="#DejaVuSans-29"/>
     </g>
    </g>
    <g id="line2d_63">
     <path d="M 730.565625 175.022812 
L 750.565625 175.022812 
" style="fill:none;stroke:#17becf;stroke-dasharray:1.5,2.475;stroke-dashoffset:0;stroke-width:1.5;"/>
    </g>
    <g id="line2d_64"/>
    <g id="text_27">
     <!-- set_09 (key 212) -->
     <g transform="translate(758.565625 178.522812)scale(0.1 -0.1)">
      <use xlink:href="#DejaVuSans-73"/>
      <use x="52.099609" xlink:href="#DejaVuSans-65"/>
      <use x="113.623047" xlink:href="#DejaVuSans-74"/>
      <use x="152.832031" xlink:href="#DejaVuSans-5f"/>
      <use x="202.832031" xlink:href="#DejaVuSans-30"/>
      <use x="266.455078" xlink:href="#DejaVuSans-39"/>
      <use x="330.078125" xlink:href="#DejaVuSans-20"/>
      <use x="361.865234" xlink:href="#DejaVuSans-28"/>
      <use x="400.878906" xlink:href="#DejaVuSans-6b"/>
      <use x="455.164062" xlink:href="#DejaVuSans-65"/>
      <use x="516.6875" xlink:href="#DejaVuSans-79"/>
      <use x="575.867188" xlink:href="#DejaVuSans-20"/>
      <use x="607.654297" xlink:href="#DejaVuSans-32"/>
      <use x="671.277344" xlink:href="#DejaVuSans-31"/>
      <use x="734.900391" xlink:href="#DejaVuSans-32"/>
      <use x="798.523438" xlink:href="#DejaVuSans-29"/>
     </g>
    </g>
    <g id="line2d_65">
     <path d="M 730.565625 189.979062 
L 750.565625 189.979062 
" style="fill:none;stroke:#1f77b4;stroke-dasharray:1.5,2.475;stroke-dashoffset:0;stroke-width:1.5;"/>
    </g>
    <g id="line2d_66"/>
    <g id="text_28">
     <!-- set_10 (key 195) -->
     <g transform="translate(758.565625 193.479062)scale(0.1 -0.1)">
      <use xlink:href="#DejaVuSans-73"/>
      <use x="52.099609" xlink:href="#DejaVuSans-65"/>
      <use x="113.623047" xlink:href="#DejaVuSans-74"/>
      <use x="152.832031" xlink:href="#DejaVuSans-5f"/>
      <use x="202.832031" xlink:href="#DejaVuSans-31"/>
      <use x="266.455078" xlink:href="#DejaVuSans-30"/>
      <use x="330.078125" xlink:href="#DejaVuSans-20"/>
      <use x="361.865234" xlink:href="#DejaVuSans-28"/>
      <use x="400.878906" xlink:href="#DejaVuSans-6b"/>
      <use x="455.164062" xlink:href="#DejaVuSans-65"/>
      <use x="516.6875" xlink:href="#DejaVuSans-79"/>
      <use x="575.867188" xlink:href="#DejaVuSans-20"/>
      <use x="607.654297" xlink:href="#DejaVuSans-31"/>
      <use x="671.277344" xlink:href="#DejaVuSans-39"/>
      <use x="734.900391" xlink:href="#DejaVuSans-35"/>
      <use x="798.523438" xlink:href="#DejaVuSans-29"/>
     </g>
    </g>
    <g id="line2d_67">
     <path d="M 730.565625 204.935312 
L 750.565625 204.935312 
" style="fill:none;stroke:#ff7f0e;stroke-dasharray:1.5,2.475;stroke-dashoffset:0;stroke-width:1.5;"/>
    </g>
    <g id="line2d_68"/>
    <g id="text_29">
     <!-- set_11 (key 128) -->
     <g transform="translate(758.565625 208.435312)scale(0.1 -0.1)">
      <use xlink:href="#DejaVuSans-73"/>
      <use x="52.099609" xlink:href="#DejaVuSans-65"/>
      <use x="113.623047" xlink:href="#DejaVuSans-74"/>
      <use x="152.832031" xlink:href="#DejaVuSans-5f"/>
      <use x="202.832031" xlink:href="#DejaVuSans-31"/>
      <use x="266.455078" xlink:href="#DejaVuSans-31"/>
      <use x="330.078125" xlink:href="#DejaVuSans-20"/>
      <use x="361.865234" xlink:href="#DejaVuSans-28"/>
      <use x="400.878906" xlink:href="#DejaVuSans-6b"/>
      <use x="455.164062" xlink:href="#DejaVuSans-65"/>
      <use x="516.6875" xlink:href="#DejaVuSans-79"/>
      <use x="575.867188" xlink:href="#DejaVuSans-20"/>
      <use x="607.654297" xlink:href="#DejaVuSans-31"/>
      <use x="671.277344" xlink:href="#DejaVuSans-32"/>
      <use x="734.900391" xlink:href="#DejaVuSans-38"/>
      <use x="798.523438" xlink:href="#DejaVuSans-29"/>
     </g>
    </g>
    <g id="line2d_69">
     <path d="M 730.565625 219.891562 
L 750.565625 219.891562 
" style="fill:none;stroke:#2ca02c;stroke-dasharray:1.5,2.475;stroke-dashoffset:0;stroke-width:1.5;"/>
    </g>
    <g id="line2d_70"/>
    <g id="text_30">
     <!-- set_12 (key 005) -->
     <g transform="translate(758.565625 223.391562)scale(0.1 -0.1)">
      <use xlink:href="#DejaVuSans-73"/>
      <use x="52.099609" xlink:href="#DejaVuSans-65"/>
      <use x="113.623047" xlink:href="#DejaVuSans-74"/>
      <use x="152.832031" xlink:href="#DejaVuSans-5f"/>
      <use x="202.832031" xlink:href="#DejaVuSans-31"/>
      <use x="266.455078" xlink:href="#DejaVuSans-32"/>
      <use x="330.078125" xlink:href="#DejaVuSans-20"/>
      <use x="361.865234" xlink:href="#DejaVuSans-28"/>
      <use x="400.878906" xlink:href="#DejaVuSans-6b"/>
      <use x="455.164062" xlink:href="#DejaVuSans-65"/>
      <use x="516.6875" xlink:href="#DejaVuSans-79"/>
      <use x="575.867188" xlink:href="#DejaVuSans-20"/>
      <use x="607.654297" xlink:href="#DejaVuSans-30"/>
      <use x="671.277344" xlink:href="#DejaVuSans-30"/>
      <use x="734.900391" xlink:href="#DejaVuSans-35"/>
      <use x="798.523438" xlink:href="#DejaVuSans-29"/>
     </g>
    </g>
    <g id="line2d_71">
     <path d="M 730.565625 234.847812 
L 750.565625 234.847812 
" style="fill:none;stroke:#d62728;stroke-dasharray:1.5,2.475;stroke-dashoffset:0;stroke-width:1.5;"/>
    </g>
    <g id="line2d_72"/>
    <g id="text_31">
     <!-- set_13 (key 081) -->
     <g transform="translate(758.565625 238.347812)scale(0.1 -0.1)">
      <use xlink:href="#DejaVuSans-73"/>
      <use x="52.099609" xlink:href="#DejaVuSans-65"/>
      <use x="113.623047" xlink:href="#DejaVuSans-74"/>
      <use x="152.832031" xlink:href="#DejaVuSans-5f"/>
      <use x="202.832031" xlink:href="#DejaVuSans-31"/>
      <use x="266.455078" xlink:href="#DejaVuSans-33"/>
      <use x="330.078125" xlink:href="#DejaVuSans-20"/>
      <use x="361.865234" xlink:href="#DejaVuSans-28"/>
      <use x="400.878906" xlink:href="#DejaVuSans-6b"/>
      <use x="455.164062" xlink:href="#DejaVuSans-65"/>
      <use x="516.6875" xlink:href="#DejaVuSans-79"/>
      <use x="575.867188" xlink:href="#DejaVuSans-20"/>
      <use x="607.654297" xlink:href="#DejaVuSans-30"/>
      <use x="671.277344" xlink:href="#DejaVuSans-38"/>
      <use x="734.900391" xlink:href="#DejaVuSans-31"/>
      <use x="798.523438" xlink:href="#DejaVuSans-29"/>
     </g>
    </g>
    <g id="line2d_73">
     <path d="M 730.565625 249.804062 
L 750.565625 249.804062 
" style="fill:none;stroke:#9467bd;stroke-dasharray:1.5,2.475;stroke-dashoffset:0;stroke-width:1.5;"/>
    </g>
    <g id="line2d_74"/>
    <g id="text_32">
     <!-- set_14 (key 083) -->
     <g transform="translate(758.565625 253.304062)scale(0.1 -0.1)">
      <use xlink:href="#DejaVuSans-73"/>
      <use x="52.099609" xlink:href="#DejaVuSans-65"/>
      <use x="113.623047" xlink:href="#DejaVuSans-74"/>
      <use x="152.832031" xlink:href="#DejaVuSans-5f"/>
      <use x="202.832031" xlink:href="#DejaVuSans-31"/>
      <use x="266.455078" xlink:href="#DejaVuSans-34"/>
      <use x="330.078125" xlink:href="#DejaVuSans-20"/>
      <use x="361.865234" xlink:href="#DejaVuSans-28"/>
      <use x="400.878906" xlink:href="#DejaVuSans-6b"/>
      <use x="455.164062" xlink:href="#DejaVuSans-65"/>
      <use x="516.6875" xlink:href="#DejaVuSans-79"/>
      <use x="575.867188" xlink:href="#DejaVuSans-20"/>
      <use x="607.654297" xlink:href="#DejaVuSans-30"/>
      <use x="671.277344" xlink:href="#DejaVuSans-38"/>
      <use x="734.900391" xlink:href="#DejaVuSans-33"/>
      <use x="798.523438" xlink:href="#DejaVuSans-29"/>
     </g>
    </g>
    <g id="line2d_75">
     <path d="M 730.565625 264.760312 
L 750.565625 264.760312 
" style="fill:none;stroke:#8c564b;stroke-dasharray:1.5,2.475;stroke-dashoffset:0;stroke-width:1.5;"/>
    </g>
    <g id="line2d_76"/>
    <g id="text_33">
     <!-- set_15 (key 179) -->
     <g transform="translate(758.565625 268.260312)scale(0.1 -0.1)">
      <use xlink:href="#DejaVuSans-73"/>
      <use x="52.099609" xlink:href="#DejaVuSans-65"/>
      <use x="113.623047" xlink:href="#DejaVuSans-74"/>
      <use x="152.832031" xlink:href="#DejaVuSans-5f"/>
      <use x="202.832031" xlink:href="#DejaVuSans-31"/>
      <use x="266.455078" xlink:href="#DejaVuSans-35"/>
      <use x="330.078125" xlink:href="#DejaVuSans-20"/>
      <use x="361.865234" xlink:href="#DejaVuSans-28"/>
      <use x="400.878906" xlink:href="#DejaVuSans-6b"/>
      <use x="455.164062" xlink:href="#DejaVuSans-65"/>
      <use x="516.6875" xlink:href="#DejaVuSans-79"/>
      <use x="575.867188" xlink:href="#DejaVuSans-20"/>
      <use x="607.654297" xlink:href="#DejaVuSans-31"/>
      <use x="671.277344" xlink:href="#DejaVuSans-37"/>
      <use x="734.900391" xlink:href="#DejaVuSans-39"/>
      <use x="798.523438" xlink:href="#DejaVuSans-29"/>
     </g>
    </g>
   </g>
  </g>
 </g>
 <defs>
  <clipPath id="pdc22461bcd">
   <rect height="554.4" width="669.6" x="46.965625" y="22.318125"/>
  </clipPath>
 </defs>
</svg>
